<svg width="32" height="32" viewBox="0 0 32 32" fill="none" xmlns="http://www.w3.org/2000/svg">
<rect x="28" y="25" width="4" height="4" fill="url(#paint0_radial_0_504)"/>
<rect x="4" y="29" width="4" height="4" transform="rotate(180 4 29)" fill="url(#paint1_radial_0_504)"/>
<rect x="4" y="25" width="24" height="4" fill="url(#paint2_linear_0_504)"/>
<path d="M25.7391 20.6167V22.6955C25.7391 24.2082 26.8292 25.4346 28.1739 25.4346H29.3913C29.3913 24.6781 28.8463 24.065 28.1739 24.065V18.6554C27.4684 19.3045 26.177 20.195 25.7391 20.6167Z" fill="#6B8F9C"/>
<path d="M5.04347 22.0107C3.36265 22.0107 2 23.5436 2 25.4345H8.69567L9.80566 23.6628L8.69567 22.0107H5.04347Z" fill="#325763"/>
<path d="M23.8707 20.6411V22.6954C24.496 22.6954 25.1421 22.5237 25.7391 22.2105C26.065 22.0396 26.3766 21.8271 26.6615 21.5757C27.5341 20.8063 28.0828 19.7567 28.1739 18.6552C28.1832 18.5435 28.1739 18.4313 28.1739 18.3188V12.4239L24.0108 12.5093C24.0108 12.5093 23.8707 19.117 23.8707 20.6411Z" fill="#FAE8AC"/>
<path d="M29.3914 9.9587L28.174 9H26.3479L25.094 11.0097L26.3479 13.1086C26.3479 13.1086 28.5849 12.2698 29.0871 12.0815C29.5893 11.8931 30.0001 11.3385 30.0001 10.8489C30.0001 10.3593 30.0001 9.9587 30.0001 9.9587H29.3914Z" fill="#F6D76F"/>
<path d="M25.7714 9.00006C24.7671 9.00006 23.6396 9.85817 23.266 10.9069L21.4355 16.045V22.6954C21.4355 23.4514 21.7082 24.1362 22.1489 24.632C22.5896 25.1277 23.1983 25.4345 23.8703 25.4345H25.0877C25.0877 24.6779 24.5429 24.065 23.8703 24.065V20.6412C24.1865 20.6412 24.5186 20.56 24.8332 20.4156C24.8365 20.4141 24.8398 20.4128 24.8431 20.4113C25.6556 20.0339 26.3477 19.2364 26.3477 18.3191V11.0475L25.8019 10.0256L26.3477 9.00006H25.7714V9.00006Z" fill="#325763"/>
<path d="M25.4957 10.0238C25.4957 10.5682 25.8719 11.0119 26.3479 11.0475V9.00006C25.8719 9.03568 25.4957 9.47938 25.4957 10.0238Z" fill="#05232E"/>
<path d="M8.69556 19.614V25.4345H14.7825C14.7825 24.6025 14.183 23.928 13.4434 23.928H12.9759C13.4336 23.5699 13.8542 23.1563 14.2304 22.6954H21.4356L23.011 19.0233L21.4356 16.0449L14.7144 14.8165C11.4042 14.2535 8.69556 16.4127 8.69556 19.614Z" fill="#6B8F9C"/>
<path opacity="0.35" d="M29.3914 9.9587L29.082 10.3515C29.1702 10.4209 29.2791 10.4587 29.3914 10.4587V9.9587ZM28.174 9L28.4833 8.60718C28.3951 8.53775 28.2862 8.5 28.174 8.5V9ZM30 9.9587H30.5C30.5 9.68256 30.2762 9.4587 30 9.4587V9.9587ZM29.087 12.0815L28.9115 11.6133L28.9115 11.6133L29.087 12.0815ZM28.1739 12.4239L27.9983 11.9557C27.8032 12.0289 27.6739 12.2155 27.6739 12.4239H28.1739ZM28.1759 18.4312H28.6761L28.6757 18.4175L28.1759 18.4312ZM28.1759 18.4314L27.6757 18.4314L27.6761 18.4452L28.1759 18.4314ZM28.1739 18.6552L28.6721 18.6974L28.6722 18.6965L28.1739 18.6552ZM28.1738 18.6555L27.6756 18.6133C27.6583 18.8184 27.7684 19.0132 27.953 19.1041C28.1377 19.195 28.3592 19.1634 28.5111 19.0246L28.1738 18.6555ZM28.174 18.6554H28.674C28.674 18.4572 28.557 18.2778 28.3756 18.1978C28.1943 18.1179 27.9829 18.1526 27.8367 18.2863L28.174 18.6554ZM28.174 24.065H27.674C27.674 24.3411 27.8978 24.565 28.174 24.565V24.065ZM29.3914 25.4346V25.9346C29.6675 25.9346 29.8914 25.7107 29.8914 25.4346H29.3914ZM25.7392 22.2105H26.2392C26.2392 22.0357 26.1479 21.8736 25.9984 21.7829C25.849 21.6923 25.663 21.6863 25.508 21.7671L25.7392 22.2105ZM25.7391 22.2105L25.5079 21.7671L25.5068 21.7678L25.7391 22.2105ZM23.8707 22.6954H23.3707C23.3707 22.9715 23.5945 23.1954 23.8707 23.1954V22.6954ZM23.8707 20.6412H24.3707C24.3707 20.365 24.1468 20.1412 23.8707 20.1412V20.6412ZM23.8704 20.6412V20.1412C23.5943 20.1412 23.3704 20.365 23.3704 20.6412H23.8704ZM23.8704 24.065H23.3704C23.3704 24.3411 23.5943 24.565 23.8704 24.565V24.065ZM25.0878 25.4345V25.9345C25.3639 25.9345 25.5878 25.7107 25.5878 25.4345H25.0878ZM22.149 24.632L21.7753 24.9642L21.7753 24.9642L22.149 24.632ZM21.4356 22.6954H21.9356C21.9356 22.4577 21.7682 22.2528 21.5352 22.2054C21.3023 22.158 21.0682 22.2813 20.9753 22.5001L21.4356 22.6954ZM21.4356 22.6954V23.1954C21.6363 23.1954 21.8175 23.0754 21.8959 22.8907L21.4356 22.6954ZM14.2304 22.6954V22.1954C14.0803 22.1954 13.9381 22.2629 13.8431 22.3792L14.2304 22.6954ZM12.9759 23.928L12.6678 23.5342C12.4998 23.6657 12.4337 23.8893 12.5032 24.091C12.5727 24.2927 12.7626 24.428 12.9759 24.428V23.928ZM14.7825 25.4345V25.9345C15.0587 25.9345 15.2825 25.7107 15.2825 25.4345H14.7825ZM8.69557 25.4345H8.19557C8.19557 25.7107 8.41943 25.9345 8.69557 25.9345V25.4345ZM8.69557 25.4345H9.19557C9.19557 25.1583 8.97172 24.9345 8.69557 24.9345V25.4345ZM2 25.4345H1.5C1.5 25.7106 1.72386 25.9345 2 25.9345V25.4345ZM8.69557 22.0106V22.5106C8.97172 22.5106 9.19557 22.2868 9.19557 22.0106H8.69557ZM14.7144 14.8165L14.8043 14.3246L14.7982 14.3235L14.7144 14.8165ZM21.4356 16.0449L21.8452 15.7582C21.7698 15.6504 21.6549 15.5767 21.5255 15.5531L21.4356 16.0449ZM21.4356 16.045L21.026 16.3317C21.1333 16.485 21.3171 16.5655 21.5025 16.5405C21.6879 16.5154 21.8438 16.389 21.9066 16.2128L21.4356 16.045ZM23.266 10.9069L23.737 11.0747L23.737 11.0747L23.266 10.9069ZM26.3477 9.00006L26.7914 9.23058C26.872 9.07558 26.8658 8.88979 26.7751 8.7405C26.6844 8.59121 26.5224 8.50006 26.3477 8.50006V9.00006ZM26.3477 9.00007L25.904 8.76955C25.8204 8.93051 25.8305 9.12414 25.9305 9.27552C26.0304 9.4269 26.2045 9.51229 26.3853 9.49866L26.3477 9.00007ZM26.3479 9.00006L26.3131 8.50127L26.3103 8.50147L26.3479 9.00006ZM26.3479 9.00006L26.3826 9.49885C26.6211 9.48223 26.8144 9.29922 26.844 9.06208L26.3479 9.00006ZM26.3479 9V8.5C26.0957 8.5 25.883 8.68777 25.8518 8.93798L26.3479 9ZM29.7007 9.56588L28.4833 8.60718L27.8646 9.39282L29.082 10.3515L29.7007 9.56588ZM30 9.4587H29.3914V10.4587H30V9.4587ZM30.5 10.8489V9.9587H29.5V10.8489H30.5ZM29.2626 12.5496C29.6178 12.4164 29.9203 12.1638 30.1336 11.8758C30.3454 11.5899 30.5 11.227 30.5 10.8489H29.5C29.5 10.9604 29.4493 11.1196 29.3301 11.2806C29.2125 11.4393 29.0584 11.5582 28.9115 11.6133L29.2626 12.5496ZM28.3494 12.8921L29.2626 12.5496L28.9115 11.6133L27.9983 11.9557L28.3494 12.8921ZM28.6739 18.3188V12.4239H27.6739V18.3188H28.6739ZM28.6757 18.4175C28.6747 18.3789 28.6739 18.3483 28.6739 18.3188H27.6739C27.6739 18.3643 27.6751 18.4087 27.6761 18.4449L28.6757 18.4175ZM28.6759 18.4313V18.4312H27.6759V18.4313H28.6759ZM28.6759 18.4313V18.4313H27.6759V18.4313H28.6759ZM28.6759 18.4314V18.4313H27.6759V18.4314H28.6759ZM28.6759 18.4314V18.4314H27.6759V18.4314H28.6759ZM28.6759 18.4314V18.4314H27.6759V18.4314H28.6759ZM28.6759 18.4314V18.4314H27.6759V18.4314H28.6759ZM28.6722 18.6965C28.681 18.59 28.6777 18.4879 28.6757 18.4177L27.6761 18.4452C27.6783 18.5246 27.6791 18.5716 27.6756 18.614L28.6722 18.6965ZM28.6721 18.6976L28.6721 18.6974L27.6757 18.6131L27.6756 18.6133L28.6721 18.6976ZM27.8367 18.2863L27.8366 18.2864L28.5111 19.0246L28.5112 19.0245L27.8367 18.2863ZM28.674 24.065V18.6554H27.674V24.065H28.674ZM29.8914 25.4346C29.8914 24.459 29.1762 23.565 28.174 23.565V24.565C28.5165 24.565 28.8914 24.8973 28.8914 25.4346H29.8914ZM28.174 25.9346H29.3914V24.9346H28.174V25.9346ZM25.2392 22.6955C25.2392 24.4273 26.4994 25.9346 28.174 25.9346V24.9346C27.1591 24.9346 26.2392 23.989 26.2392 22.6955H25.2392ZM25.2392 22.2105V22.6955H26.2392V22.2105H25.2392ZM25.9702 22.6539L25.9703 22.6539L25.508 21.7671L25.5079 21.7671L25.9702 22.6539ZM23.8707 23.1954C24.586 23.1954 25.3113 22.9996 25.9714 22.6533L25.5068 21.7678C24.9728 22.0479 24.4058 22.1954 23.8707 22.1954V23.1954ZM23.3707 20.6412V22.6954H24.3707V20.6412H23.3707ZM23.8704 21.1412H23.8707V20.1412H23.8704V21.1412ZM24.3704 24.065V20.6412H23.3704V24.065H24.3704ZM25.5878 25.4345C25.5878 24.4587 24.8729 23.565 23.8704 23.565V24.565C24.2131 24.565 24.5878 24.897 24.5878 25.4345H25.5878ZM23.8704 25.9345H25.0878V24.9345H23.8704V25.9345ZM21.7753 24.9642C22.2998 25.5542 23.0397 25.9345 23.8704 25.9345V24.9345C23.3571 24.9345 22.8796 24.7013 22.5227 24.2998L21.7753 24.9642ZM20.9356 22.6954C20.9356 23.5714 21.2515 24.375 21.7753 24.9642L22.5227 24.2998C22.165 23.8974 21.9356 23.3315 21.9356 22.6954H20.9356ZM20.9356 22.6954V22.6954H21.9356V22.6954H20.9356ZM21.8959 22.8907L21.8959 22.8907L20.9753 22.5001L20.9753 22.5001L21.8959 22.8907ZM14.2304 23.1954H21.4356V22.1954H14.2304V23.1954ZM13.284 24.3218C13.7718 23.9402 14.2188 23.5003 14.6178 23.0116L13.8431 22.3792C13.4897 22.8122 13.0955 23.1996 12.6678 23.5342L13.284 24.3218ZM13.4434 23.428H12.9759V24.428H13.4434V23.428ZM15.2825 25.4345C15.2825 24.3834 14.5129 23.428 13.4434 23.428V24.428C13.8531 24.428 14.2825 24.8217 14.2825 25.4345H15.2825ZM8.69557 25.9345H14.7825V24.9345H8.69557V25.9345ZM8.19557 25.4345V25.4345H9.19557V25.4345H8.19557ZM2 25.9345H8.69557V24.9345H2V25.9345ZM5.04347 21.5106C3.03278 21.5106 1.5 23.3244 1.5 25.4345H2.5C2.5 23.7628 3.69252 22.5106 5.04347 22.5106V21.5106ZM8.69557 21.5106H5.04347V22.5106H8.69557V21.5106ZM8.19557 19.614V22.0106H9.19557V19.614H8.19557ZM14.7982 14.3235C11.2119 13.7136 8.19557 16.0742 8.19557 19.614H9.19557C9.19557 16.7511 11.5966 14.7934 14.6305 15.3094L14.7982 14.3235ZM21.5255 15.5531L14.8043 14.3246L14.6245 15.3083L21.3457 16.5368L21.5255 15.5531ZM21.8452 15.7582L21.8452 15.7582L21.026 16.3317L21.026 16.3317L21.8452 15.7582ZM22.795 10.7391L20.9646 15.8772L21.9066 16.2128L23.737 11.0747L22.795 10.7391ZM25.7714 8.50006C25.1331 8.50006 24.4965 8.76878 23.9794 9.16234C23.4599 9.55774 23.019 10.1104 22.795 10.7391L23.737 11.0747C23.8867 10.6548 24.1963 10.2539 24.585 9.95808C24.9762 9.66039 25.4055 9.50006 25.7714 9.50006V8.50006ZM26.3477 8.50006H25.7714V9.50006H26.3477V8.50006ZM26.7914 9.23059L26.7914 9.23058L25.9041 8.76954L25.904 8.76955L26.7914 9.23059ZM26.3103 8.50147C26.3103 8.50148 26.3102 8.50148 26.3101 8.50149L26.3853 9.49866C26.3853 9.49866 26.3854 9.49865 26.3854 9.49865L26.3103 8.50147ZM26.3131 8.50127L26.3131 8.50127L26.3826 9.49885L26.3826 9.49885L26.3131 8.50127ZM25.8518 8.93798L25.8517 8.93804L26.844 9.06208L26.844 9.06202L25.8518 8.93798ZM28.174 8.5H26.3479V9.5H28.174V8.5Z" fill="url(#paint3_linear_0_504)"/>
<path opacity="0.5" d="M29.3914 9.9587L29.082 10.3515C29.1702 10.4209 29.2791 10.4587 29.3914 10.4587V9.9587ZM28.174 9L28.4833 8.60718C28.3951 8.53775 28.2862 8.5 28.174 8.5V9ZM30 9.9587H30.5C30.5 9.68256 30.2762 9.4587 30 9.4587V9.9587ZM29.087 12.0815L28.9115 11.6133L28.9115 11.6133L29.087 12.0815ZM28.1739 12.4239L27.9983 11.9557C27.8032 12.0289 27.6739 12.2155 27.6739 12.4239H28.1739ZM28.1759 18.4312H28.6761L28.6757 18.4175L28.1759 18.4312ZM28.1759 18.4314L27.6757 18.4314L27.6761 18.4452L28.1759 18.4314ZM28.1739 18.6552L28.6721 18.6974L28.6722 18.6965L28.1739 18.6552ZM28.1738 18.6555L27.6756 18.6133C27.6583 18.8184 27.7684 19.0132 27.953 19.1041C28.1377 19.195 28.3592 19.1634 28.5111 19.0246L28.1738 18.6555ZM28.174 18.6554H28.674C28.674 18.4572 28.557 18.2778 28.3756 18.1978C28.1943 18.1179 27.9829 18.1526 27.8367 18.2863L28.174 18.6554ZM28.174 24.065H27.674C27.674 24.3411 27.8978 24.565 28.174 24.565V24.065ZM29.3914 25.4346V25.9346C29.6675 25.9346 29.8914 25.7107 29.8914 25.4346H29.3914ZM25.7392 22.2105H26.2392C26.2392 22.0357 26.1479 21.8736 25.9984 21.7829C25.849 21.6923 25.663 21.6863 25.508 21.7671L25.7392 22.2105ZM25.7391 22.2105L25.5079 21.7671L25.5068 21.7678L25.7391 22.2105ZM23.8707 22.6954H23.3707C23.3707 22.9715 23.5945 23.1954 23.8707 23.1954V22.6954ZM23.8707 20.6412H24.3707C24.3707 20.365 24.1468 20.1412 23.8707 20.1412V20.6412ZM23.8704 20.6412V20.1412C23.5943 20.1412 23.3704 20.365 23.3704 20.6412H23.8704ZM23.8704 24.065H23.3704C23.3704 24.3411 23.5943 24.565 23.8704 24.565V24.065ZM25.0878 25.4345V25.9345C25.3639 25.9345 25.5878 25.7107 25.5878 25.4345H25.0878ZM22.149 24.632L21.7753 24.9642L21.7753 24.9642L22.149 24.632ZM21.4356 22.6954H21.9356C21.9356 22.4577 21.7682 22.2528 21.5352 22.2054C21.3023 22.158 21.0682 22.2813 20.9753 22.5001L21.4356 22.6954ZM21.4356 22.6954V23.1954C21.6363 23.1954 21.8175 23.0754 21.8959 22.8907L21.4356 22.6954ZM14.2304 22.6954V22.1954C14.0803 22.1954 13.9381 22.2629 13.8431 22.3792L14.2304 22.6954ZM12.9759 23.928L12.6678 23.5342C12.4998 23.6657 12.4337 23.8893 12.5032 24.091C12.5727 24.2927 12.7626 24.428 12.9759 24.428V23.928ZM14.7825 25.4345V25.9345C15.0587 25.9345 15.2825 25.7107 15.2825 25.4345H14.7825ZM8.69557 25.4345H8.19557C8.19557 25.7107 8.41943 25.9345 8.69557 25.9345V25.4345ZM8.69557 25.4345H9.19557C9.19557 25.1583 8.97172 24.9345 8.69557 24.9345V25.4345ZM2 25.4345H1.5C1.5 25.7106 1.72386 25.9345 2 25.9345V25.4345ZM8.69557 22.0106V22.5106C8.97172 22.5106 9.19557 22.2868 9.19557 22.0106H8.69557ZM14.7144 14.8165L14.8043 14.3246L14.7982 14.3235L14.7144 14.8165ZM21.4356 16.0449L21.8452 15.7582C21.7698 15.6504 21.6549 15.5767 21.5255 15.5531L21.4356 16.0449ZM21.4356 16.045L21.026 16.3317C21.1333 16.485 21.3171 16.5655 21.5025 16.5405C21.6879 16.5154 21.8438 16.389 21.9066 16.2128L21.4356 16.045ZM23.266 10.9069L23.737 11.0747L23.737 11.0747L23.266 10.9069ZM26.3477 9.00006L26.7914 9.23058C26.872 9.07558 26.8658 8.88979 26.7751 8.7405C26.6844 8.59121 26.5224 8.50006 26.3477 8.50006V9.00006ZM26.3477 9.00007L25.904 8.76955C25.8204 8.93051 25.8305 9.12414 25.9305 9.27552C26.0304 9.4269 26.2045 9.51229 26.3853 9.49866L26.3477 9.00007ZM26.3479 9.00006L26.3131 8.50127L26.3103 8.50147L26.3479 9.00006ZM26.3479 9.00006L26.3826 9.49885C26.6211 9.48223 26.8144 9.29922 26.844 9.06208L26.3479 9.00006ZM26.3479 9V8.5C26.0957 8.5 25.883 8.68777 25.8518 8.93798L26.3479 9ZM29.7007 9.56588L28.4833 8.60718L27.8646 9.39282L29.082 10.3515L29.7007 9.56588ZM30 9.4587H29.3914V10.4587H30V9.4587ZM30.5 10.8489V9.9587H29.5V10.8489H30.5ZM29.2626 12.5496C29.6178 12.4164 29.9203 12.1638 30.1336 11.8758C30.3454 11.5899 30.5 11.227 30.5 10.8489H29.5C29.5 10.9604 29.4493 11.1196 29.3301 11.2806C29.2125 11.4393 29.0584 11.5582 28.9115 11.6133L29.2626 12.5496ZM28.3494 12.8921L29.2626 12.5496L28.9115 11.6133L27.9983 11.9557L28.3494 12.8921ZM28.6739 18.3188V12.4239H27.6739V18.3188H28.6739ZM28.6757 18.4175C28.6747 18.3789 28.6739 18.3483 28.6739 18.3188H27.6739C27.6739 18.3643 27.6751 18.4087 27.6761 18.4449L28.6757 18.4175ZM28.6759 18.4313V18.4312H27.6759V18.4313H28.6759ZM28.6759 18.4313V18.4313H27.6759V18.4313H28.6759ZM28.6759 18.4314V18.4313H27.6759V18.4314H28.6759ZM28.6759 18.4314V18.4314H27.6759V18.4314H28.6759ZM28.6759 18.4314V18.4314H27.6759V18.4314H28.6759ZM28.6759 18.4314V18.4314H27.6759V18.4314H28.6759ZM28.6722 18.6965C28.681 18.59 28.6777 18.4879 28.6757 18.4177L27.6761 18.4452C27.6783 18.5246 27.6791 18.5716 27.6756 18.614L28.6722 18.6965ZM28.6721 18.6976L28.6721 18.6974L27.6757 18.6131L27.6756 18.6133L28.6721 18.6976ZM27.8367 18.2863L27.8366 18.2864L28.5111 19.0246L28.5112 19.0245L27.8367 18.2863ZM28.674 24.065V18.6554H27.674V24.065H28.674ZM29.8914 25.4346C29.8914 24.459 29.1762 23.565 28.174 23.565V24.565C28.5165 24.565 28.8914 24.8973 28.8914 25.4346H29.8914ZM28.174 25.9346H29.3914V24.9346H28.174V25.9346ZM25.2392 22.6955C25.2392 24.4273 26.4994 25.9346 28.174 25.9346V24.9346C27.1591 24.9346 26.2392 23.989 26.2392 22.6955H25.2392ZM25.2392 22.2105V22.6955H26.2392V22.2105H25.2392ZM25.9702 22.6539L25.9703 22.6539L25.508 21.7671L25.5079 21.7671L25.9702 22.6539ZM23.8707 23.1954C24.586 23.1954 25.3113 22.9996 25.9714 22.6533L25.5068 21.7678C24.9728 22.0479 24.4058 22.1954 23.8707 22.1954V23.1954ZM23.3707 20.6412V22.6954H24.3707V20.6412H23.3707ZM23.8704 21.1412H23.8707V20.1412H23.8704V21.1412ZM24.3704 24.065V20.6412H23.3704V24.065H24.3704ZM25.5878 25.4345C25.5878 24.4587 24.8729 23.565 23.8704 23.565V24.565C24.2131 24.565 24.5878 24.897 24.5878 25.4345H25.5878ZM23.8704 25.9345H25.0878V24.9345H23.8704V25.9345ZM21.7753 24.9642C22.2998 25.5542 23.0397 25.9345 23.8704 25.9345V24.9345C23.3571 24.9345 22.8796 24.7013 22.5227 24.2998L21.7753 24.9642ZM20.9356 22.6954C20.9356 23.5714 21.2515 24.375 21.7753 24.9642L22.5227 24.2998C22.165 23.8974 21.9356 23.3315 21.9356 22.6954H20.9356ZM20.9356 22.6954V22.6954H21.9356V22.6954H20.9356ZM21.8959 22.8907L21.8959 22.8907L20.9753 22.5001L20.9753 22.5001L21.8959 22.8907ZM14.2304 23.1954H21.4356V22.1954H14.2304V23.1954ZM13.284 24.3218C13.7718 23.9402 14.2188 23.5003 14.6178 23.0116L13.8431 22.3792C13.4897 22.8122 13.0955 23.1996 12.6678 23.5342L13.284 24.3218ZM13.4434 23.428H12.9759V24.428H13.4434V23.428ZM15.2825 25.4345C15.2825 24.3834 14.5129 23.428 13.4434 23.428V24.428C13.8531 24.428 14.2825 24.8217 14.2825 25.4345H15.2825ZM8.69557 25.9345H14.7825V24.9345H8.69557V25.9345ZM8.19557 25.4345V25.4345H9.19557V25.4345H8.19557ZM2 25.9345H8.69557V24.9345H2V25.9345ZM5.04347 21.5106C3.03278 21.5106 1.5 23.3244 1.5 25.4345H2.5C2.5 23.7628 3.69252 22.5106 5.04347 22.5106V21.5106ZM8.69557 21.5106H5.04347V22.5106H8.69557V21.5106ZM8.19557 19.614V22.0106H9.19557V19.614H8.19557ZM14.7982 14.3235C11.2119 13.7136 8.19557 16.0742 8.19557 19.614H9.19557C9.19557 16.7511 11.5966 14.7934 14.6305 15.3094L14.7982 14.3235ZM21.5255 15.5531L14.8043 14.3246L14.6245 15.3083L21.3457 16.5368L21.5255 15.5531ZM21.8452 15.7582L21.8452 15.7582L21.026 16.3317L21.026 16.3317L21.8452 15.7582ZM22.795 10.7391L20.9646 15.8772L21.9066 16.2128L23.737 11.0747L22.795 10.7391ZM25.7714 8.50006C25.1331 8.50006 24.4965 8.76878 23.9794 9.16234C23.4599 9.55774 23.019 10.1104 22.795 10.7391L23.737 11.0747C23.8867 10.6548 24.1963 10.2539 24.585 9.95808C24.9762 9.66039 25.4055 9.50006 25.7714 9.50006V8.50006ZM26.3477 8.50006H25.7714V9.50006H26.3477V8.50006ZM26.7914 9.23059L26.7914 9.23058L25.9041 8.76954L25.904 8.76955L26.7914 9.23059ZM26.3103 8.50147C26.3103 8.50148 26.3102 8.50148 26.3101 8.50149L26.3853 9.49866C26.3853 9.49866 26.3854 9.49865 26.3854 9.49865L26.3103 8.50147ZM26.3131 8.50127L26.3131 8.50127L26.3826 9.49885L26.3826 9.49885L26.3131 8.50127ZM25.8518 8.93798L25.8517 8.93804L26.844 9.06208L26.844 9.06202L25.8518 8.93798ZM28.174 8.5H26.3479V9.5H28.174V8.5Z" fill="#0E141F"/>
<defs>
<radialGradient id="paint0_radial_0_504" cx="0" cy="0" r="1" gradientUnits="userSpaceOnUse" gradientTransform="translate(27.9944 27) scale(4.00757 1.64814)">
<stop stop-color="#181818"/>
<stop offset="1" stop-color="#181818" stop-opacity="0.01"/>
</radialGradient>
<radialGradient id="paint1_radial_0_504" cx="0" cy="0" r="1" gradientUnits="userSpaceOnUse" gradientTransform="translate(3.99438 31) scale(4.00757 1.63158)">
<stop stop-color="#181818"/>
<stop offset="1" stop-color="#181818" stop-opacity="0.01"/>
</radialGradient>
<linearGradient id="paint2_linear_0_504" x1="28.1103" y1="28.7341" x2="28.1103" y2="24.9997" gradientUnits="userSpaceOnUse">
<stop stop-color="#181818" stop-opacity="0.01"/>
<stop offset="0.5" stop-color="#181818"/>
<stop offset="1" stop-color="#181818" stop-opacity="0.01"/>
</linearGradient>
<linearGradient id="paint3_linear_0_504" x1="-0.313226" y1="9.34239" x2="-0.313226" y2="25.0922" gradientUnits="userSpaceOnUse">
<stop stop-color="white"/>
<stop offset="0.0416667" stop-color="white" stop-opacity="0.235294"/>
<stop offset="0.958333" stop-color="white" stop-opacity="0.156863"/>
<stop offset="1" stop-color="white" stop-opacity="0.392157"/>
</linearGradient>
</defs>
</svg>
