<svg width="24" height="24" viewBox="0 0 24 24" fill="none" xmlns="http://www.w3.org/2000/svg">
<g opacity="0.4">
<rect x="21" y="18" width="3" height="3" fill="url(#paint0_radial_0_545)"/>
<rect x="3" y="21" width="3" height="3" transform="rotate(180 3 21)" fill="url(#paint1_radial_0_545)"/>
<rect x="3" y="18" width="18" height="3" fill="url(#paint2_linear_0_545)"/>
</g>
<path d="M18.9565 15.2976V16.7825C18.9565 17.863 19.7352 18.739 20.6957 18.739H21.5653C21.5653 18.1987 21.176 17.7607 20.6957 17.7607V13.8967C20.1917 14.3604 19.2693 14.9964 18.9565 15.2976Z" fill="#6B8F9C"/>
<path d="M4.17391 16.2933C2.97332 16.2933 2 17.3883 2 18.7389H6.78262L7.57547 17.4734L6.78262 16.2933H4.17391Z" fill="#325763"/>
<path d="M17.6219 15.3151V16.7824C18.0686 16.7824 18.5301 16.6598 18.9565 16.4361C19.1893 16.314 19.4118 16.1622 19.6153 15.9827C20.2387 15.4331 20.6306 14.6834 20.6957 13.8966C20.7023 13.8168 20.6957 13.7367 20.6957 13.6563V9.44565L17.722 9.50664C17.722 9.50664 17.6219 14.2264 17.6219 15.3151Z" fill="#FAE8AC"/>
<path d="M21.5653 7.68479L20.6957 7H19.3914L18.4957 8.43549L19.3914 9.93474C19.3914 9.93474 20.9892 9.33556 21.3479 9.20104C21.7066 9.06653 22.0001 8.67037 22.0001 8.32066C22.0001 7.97095 22.0001 7.68479 22.0001 7.68479H21.5653Z" fill="#F6D76F"/>
<path d="M18.9796 7.00003C18.2622 7.00003 17.4569 7.61297 17.19 8.36209L15.8826 12.0321V16.7824C15.8826 17.3224 16.0773 17.8115 16.3921 18.1657C16.7069 18.5198 17.1417 18.7389 17.6217 18.7389H18.4913C18.4913 18.1985 18.1021 17.7607 17.6217 17.7607V15.3151C17.8475 15.3151 18.0847 15.2571 18.3095 15.154C18.3118 15.1529 18.3142 15.152 18.3165 15.1509C18.8969 14.8813 19.3912 14.3117 19.3912 13.6565V8.4625L19.0014 7.73254L19.3912 7.00003H18.9796V7.00003Z" fill="#325763"/>
<path d="M18.7827 7.73126C18.7827 8.12013 19.0514 8.43706 19.3914 8.4625V7.00003C19.0514 7.02547 18.7827 7.3424 18.7827 7.73126Z" fill="#05232E"/>
<path d="M6.78259 14.5814V18.7389H11.1304C11.1304 18.1447 10.7022 17.6629 10.1739 17.6629H9.83998C10.1669 17.4071 10.4674 17.1116 10.7361 16.7824H15.8826L17.0079 14.1595L15.8826 12.0321L11.0817 11.1546C8.71736 10.7525 6.78259 12.2947 6.78259 14.5814Z" fill="#6B8F9C"/>
<path opacity="0.35" d="M21.5653 7.68479L21.2559 8.0776C21.3441 8.14703 21.4531 8.18479 21.5653 8.18479V7.68479ZM20.6957 7L21.0051 6.60718C20.9169 6.53775 20.8079 6.5 20.6957 6.5V7ZM22 7.68479H22.5C22.5 7.40864 22.2762 7.18479 22 7.18479V7.68479ZM21.3479 9.20104L21.1723 8.73288L21.1723 8.73288L21.3479 9.20104ZM20.6957 9.44564L20.5201 8.97747C20.3249 9.05065 20.1957 9.23721 20.1957 9.44564H20.6957ZM20.6971 13.7367L20.1973 13.7504L20.1973 13.7504L20.6971 13.7367ZM20.6957 13.8966L20.1974 13.8554L20.1973 13.8561L20.6957 13.8966ZM20.6957 13.8967L20.1973 13.8562C20.1806 14.0618 20.2918 14.2565 20.4774 14.3465C20.6629 14.4366 20.8847 14.4034 21.0359 14.2631L20.6957 13.8967ZM20.6957 13.8967H21.1957C21.1957 13.6978 21.0778 13.5179 20.8955 13.4384C20.7132 13.3589 20.5012 13.395 20.3554 13.5303L20.6957 13.8967ZM20.6957 17.7607H20.1957C20.1957 18.0369 20.4195 18.2607 20.6957 18.2607V17.7607ZM21.5652 18.739V19.239C21.8414 19.239 22.0652 19.0151 22.0652 18.739H21.5652ZM18.9565 16.7825L19.4565 16.7825L19.4565 16.7825L18.9565 16.7825ZM18.9565 16.4361L19.4565 16.4361C19.4565 16.2611 19.365 16.0988 19.2152 16.0082C19.0654 15.9177 18.8792 15.912 18.7242 15.9933L18.9565 16.4361ZM17.6219 16.7824H17.1219C17.1219 17.0586 17.3458 17.2824 17.6219 17.2824V16.7824ZM17.6219 15.3151H18.1219C18.1219 15.039 17.8981 14.8151 17.6219 14.8151V15.3151ZM17.6217 15.3151V14.8151C17.3455 14.8151 17.1217 15.039 17.1217 15.3151H17.6217ZM17.6217 17.7607H17.1217C17.1217 18.0368 17.3455 18.2607 17.6217 18.2607V17.7607ZM18.4912 18.7389V19.2389C18.7674 19.2389 18.9912 19.0151 18.9912 18.7389H18.4912ZM16.3921 18.1657L16.7658 17.8335L16.7658 17.8335L16.3921 18.1657ZM15.8825 16.7824H16.3825C16.3825 16.5063 16.1587 16.2824 15.8825 16.2824V16.7824ZM10.736 16.7824V16.2824C10.5859 16.2824 10.4436 16.3499 10.3487 16.4663L10.736 16.7824ZM9.83993 17.6629L9.53183 17.2691C9.3638 17.4005 9.2977 17.6241 9.36722 17.8258C9.43675 18.0275 9.62659 18.1629 9.83993 18.1629V17.6629ZM11.1304 18.7389V19.2389C11.4065 19.2389 11.6304 19.0151 11.6304 18.7389H11.1304ZM6.78254 18.7389H6.28254C6.28254 19.0151 6.5064 19.2389 6.78254 19.2389V18.7389ZM6.78254 18.7389H7.28254C7.28254 18.4628 7.05868 18.2389 6.78254 18.2389V18.7389ZM2 18.7389H1.5C1.5 19.0151 1.72386 19.2389 2 19.2389V18.7389ZM6.78254 16.2933V16.7933C7.05868 16.7933 7.28254 16.5695 7.28254 16.2933H6.78254ZM11.0817 11.1546L11.1716 10.6627L11.1655 10.6617L11.0817 11.1546ZM15.8825 12.0321L15.7926 12.524C16.0338 12.568 16.2713 12.4308 16.3536 12.1999L15.8825 12.0321ZM17.19 8.3621L17.661 8.5299L17.661 8.5299L17.19 8.3621ZM19.3912 7.00004L19.8221 7.25373C19.9131 7.09914 19.9143 6.90763 19.8253 6.75189C19.7362 6.59615 19.5706 6.50004 19.3912 6.50004V7.00004ZM19.3912 7.00006L18.9603 6.74638C18.8659 6.9068 18.8684 7.10643 18.9668 7.26444C19.0653 7.42246 19.2433 7.51269 19.429 7.49863L19.3912 7.00006ZM19.3913 7.00005L19.3541 6.50143L19.3537 6.50147L19.3913 7.00005ZM19.3914 7.00004L19.4286 7.49866C19.6896 7.47918 19.8914 7.26175 19.8914 7.00004H19.3914ZM19.3914 7V6.5C19.1152 6.5 18.8914 6.72386 18.8914 7H19.3914ZM21.8746 7.29197L21.0051 6.60718L20.3864 7.39282L21.2559 8.0776L21.8746 7.29197ZM22 7.18479H21.5653V8.18479H22V7.18479ZM22.5 8.32066V7.68479H21.5V8.32066H22.5ZM21.5235 9.66921C21.8069 9.56291 22.0442 9.36339 22.2103 9.13916C22.3747 8.91714 22.5 8.62879 22.5 8.32066H21.5C21.5 8.36224 21.4786 8.44683 21.4067 8.54394C21.3364 8.63884 21.2476 8.70466 21.1723 8.73288L21.5235 9.66921ZM20.8712 9.9138L21.5235 9.66921L21.1723 8.73288L20.5201 8.97747L20.8712 9.9138ZM21.1957 13.6563V9.44564H20.1957V13.6563H21.1957ZM21.1969 13.723C21.1962 13.6951 21.1957 13.6751 21.1957 13.6563H20.1957C20.1957 13.6911 20.1966 13.7247 20.1973 13.7504L21.1969 13.723ZM21.194 13.9378C21.201 13.8526 21.1983 13.7718 21.1969 13.723L20.1973 13.7504C20.1989 13.8085 20.1991 13.8342 20.1974 13.8554L21.194 13.9378ZM21.194 13.9372L21.194 13.9371L20.1973 13.8561L20.1973 13.8562L21.194 13.9372ZM20.3554 13.5303L20.3554 13.5303L21.0359 14.2631L21.0359 14.2631L20.3554 13.5303ZM21.1957 17.7607V13.8967H20.1957V17.7607H21.1957ZM22.0652 18.739C22.0652 17.9795 21.5058 17.2607 20.6957 17.2607V18.2607C20.8461 18.2607 21.0652 18.4178 21.0652 18.739H22.0652ZM20.6957 19.239H21.5652V18.239H20.6957V19.239ZM18.4565 16.7825C18.4565 18.0821 19.4053 19.239 20.6957 19.239V18.239C20.065 18.239 19.4565 17.6438 19.4565 16.7825H18.4565ZM18.4565 16.4361L18.4565 16.7825L19.4565 16.7825L19.4565 16.4361L18.4565 16.4361ZM17.6219 17.2824C18.1587 17.2824 18.6993 17.1356 19.1888 16.8789L18.7242 15.9933C18.3608 16.184 17.9784 16.2824 17.6219 16.2824V17.2824ZM17.1219 15.3151V16.7824H18.1219V15.3151H17.1219ZM17.6217 15.8151H17.6219V14.8151H17.6217V15.8151ZM18.1217 17.7607V15.3151H17.1217V17.7607H18.1217ZM18.9912 18.7389C18.9912 17.9793 18.432 17.2607 17.6217 17.2607V18.2607C17.7722 18.2607 17.9912 18.4176 17.9912 18.7389H18.9912ZM17.6217 19.2389H18.4912V18.2389H17.6217V19.2389ZM16.0184 18.4979C16.417 18.9463 16.983 19.2389 17.6217 19.2389V18.2389C17.3004 18.2389 16.9968 18.0933 16.7658 17.8335L16.0184 18.4979ZM15.3825 16.7825C15.3825 17.4424 15.6206 18.0503 16.0184 18.4979L16.7658 17.8335C16.534 17.5728 16.3825 17.2025 16.3825 16.7825H15.3825ZM15.3825 16.7824V16.7825H16.3825V16.7824H15.3825ZM10.736 17.2824H15.8825V16.2824H10.736V17.2824ZM10.148 18.0567C10.505 17.7773 10.8319 17.4557 11.1234 17.0986L10.3487 16.4663C10.1027 16.7676 9.82871 17.0368 9.53183 17.2691L10.148 18.0567ZM10.1738 17.1629H9.83993V18.1629H10.1738V17.1629ZM11.6304 18.7389C11.6304 17.9255 11.032 17.1629 10.1738 17.1629V18.1629C10.3722 18.1629 10.6304 18.3638 10.6304 18.7389H11.6304ZM6.78254 19.2389H11.1304V18.2389H6.78254V19.2389ZM6.28254 18.7389V18.7389H7.28254V18.7389H6.28254ZM2 19.2389H6.78254V18.2389H2V19.2389ZM4.17391 15.7933C2.64345 15.7933 1.5 17.1691 1.5 18.7389H2.5C2.5 17.6074 3.30319 16.7933 4.17391 16.7933V15.7933ZM6.78254 15.7933H4.17391V16.7933H6.78254V15.7933ZM6.28254 14.5814V16.2933H7.28254V14.5814H6.28254ZM11.1655 10.6617C8.52495 10.2126 6.28254 11.9563 6.28254 14.5814H7.28254C7.28254 12.6332 8.90966 11.2924 10.9979 11.6475L11.1655 10.6617ZM15.9724 11.5402L11.1716 10.6628L10.9918 11.6465L15.7926 12.524L15.9724 11.5402ZM16.719 8.1943L15.4115 11.8643L16.3536 12.1999L17.661 8.5299L16.719 8.1943ZM18.9796 6.50004C18.4847 6.50004 18.0004 6.70747 17.613 7.00228C17.2233 7.29893 16.8896 7.71534 16.719 8.1943L17.661 8.5299C17.7572 8.25974 17.9597 7.99512 18.2187 7.79802C18.48 7.59908 18.7571 7.50004 18.9796 7.50004V6.50004ZM19.3912 6.50004H18.9796V7.50004H19.3912V6.50004ZM19.8221 7.25374L19.8221 7.25373L18.9603 6.74636L18.9603 6.74638L19.8221 7.25374ZM19.3537 6.50147L19.3534 6.50149L19.429 7.49863L19.429 7.49863L19.3537 6.50147ZM19.3542 6.50143C19.3541 6.50143 19.3541 6.50143 19.3541 6.50143L19.4286 7.49866C19.4286 7.49866 19.4286 7.49866 19.4286 7.49866L19.3542 6.50143ZM18.8914 7V7.00004H19.8914V7H18.8914ZM20.6957 6.5H19.3914V7.5H20.6957V6.5Z" fill="url(#paint3_linear_0_545)"/>
<path opacity="0.5" d="M21.5653 7.68479L21.2559 8.0776C21.3441 8.14703 21.4531 8.18479 21.5653 8.18479V7.68479ZM20.6957 7L21.0051 6.60718C20.9169 6.53775 20.8079 6.5 20.6957 6.5V7ZM22 7.68479H22.5C22.5 7.40864 22.2762 7.18479 22 7.18479V7.68479ZM21.3479 9.20104L21.1723 8.73288L21.1723 8.73288L21.3479 9.20104ZM20.6957 9.44564L20.5201 8.97747C20.3249 9.05065 20.1957 9.23721 20.1957 9.44564H20.6957ZM20.6971 13.7367L20.1973 13.7504L20.1973 13.7504L20.6971 13.7367ZM20.6957 13.8966L20.1974 13.8554L20.1973 13.8561L20.6957 13.8966ZM20.6957 13.8967L20.1973 13.8562C20.1806 14.0618 20.2918 14.2565 20.4774 14.3465C20.6629 14.4366 20.8847 14.4034 21.0359 14.2631L20.6957 13.8967ZM20.6957 13.8967H21.1957C21.1957 13.6978 21.0778 13.5179 20.8955 13.4384C20.7132 13.3589 20.5012 13.395 20.3554 13.5303L20.6957 13.8967ZM20.6957 17.7607H20.1957C20.1957 18.0369 20.4195 18.2607 20.6957 18.2607V17.7607ZM21.5652 18.739V19.239C21.8414 19.239 22.0652 19.0151 22.0652 18.739H21.5652ZM18.9565 16.7825L19.4565 16.7825L19.4565 16.7825L18.9565 16.7825ZM18.9565 16.4361L19.4565 16.4361C19.4565 16.2611 19.365 16.0988 19.2152 16.0082C19.0654 15.9177 18.8792 15.912 18.7242 15.9933L18.9565 16.4361ZM17.6219 16.7824H17.1219C17.1219 17.0586 17.3458 17.2824 17.6219 17.2824V16.7824ZM17.6219 15.3151H18.1219C18.1219 15.039 17.8981 14.8151 17.6219 14.8151V15.3151ZM17.6217 15.3151V14.8151C17.3455 14.8151 17.1217 15.039 17.1217 15.3151H17.6217ZM17.6217 17.7607H17.1217C17.1217 18.0368 17.3455 18.2607 17.6217 18.2607V17.7607ZM18.4912 18.7389V19.2389C18.7674 19.2389 18.9912 19.0151 18.9912 18.7389H18.4912ZM16.3921 18.1657L16.7658 17.8335L16.7658 17.8335L16.3921 18.1657ZM15.8825 16.7824H16.3825C16.3825 16.5063 16.1587 16.2824 15.8825 16.2824V16.7824ZM10.736 16.7824V16.2824C10.5859 16.2824 10.4436 16.3499 10.3487 16.4663L10.736 16.7824ZM9.83993 17.6629L9.53183 17.2691C9.3638 17.4005 9.2977 17.6241 9.36722 17.8258C9.43675 18.0275 9.62659 18.1629 9.83993 18.1629V17.6629ZM11.1304 18.7389V19.2389C11.4065 19.2389 11.6304 19.0151 11.6304 18.7389H11.1304ZM6.78254 18.7389H6.28254C6.28254 19.0151 6.5064 19.2389 6.78254 19.2389V18.7389ZM6.78254 18.7389H7.28254C7.28254 18.4628 7.05868 18.2389 6.78254 18.2389V18.7389ZM2 18.7389H1.5C1.5 19.0151 1.72386 19.2389 2 19.2389V18.7389ZM6.78254 16.2933V16.7933C7.05868 16.7933 7.28254 16.5695 7.28254 16.2933H6.78254ZM11.0817 11.1546L11.1716 10.6627L11.1655 10.6617L11.0817 11.1546ZM15.8825 12.0321L15.7926 12.524C16.0338 12.568 16.2713 12.4308 16.3536 12.1999L15.8825 12.0321ZM17.19 8.3621L17.661 8.5299L17.661 8.5299L17.19 8.3621ZM19.3912 7.00004L19.8221 7.25373C19.9131 7.09914 19.9143 6.90763 19.8253 6.75189C19.7362 6.59615 19.5706 6.50004 19.3912 6.50004V7.00004ZM19.3912 7.00006L18.9603 6.74638C18.8659 6.9068 18.8684 7.10643 18.9668 7.26444C19.0653 7.42246 19.2433 7.51269 19.429 7.49863L19.3912 7.00006ZM19.3913 7.00005L19.3541 6.50143L19.3537 6.50147L19.3913 7.00005ZM19.3914 7.00004L19.4286 7.49866C19.6896 7.47918 19.8914 7.26175 19.8914 7.00004H19.3914ZM19.3914 7V6.5C19.1152 6.5 18.8914 6.72386 18.8914 7H19.3914ZM21.8746 7.29197L21.0051 6.60718L20.3864 7.39282L21.2559 8.0776L21.8746 7.29197ZM22 7.18479H21.5653V8.18479H22V7.18479ZM22.5 8.32066V7.68479H21.5V8.32066H22.5ZM21.5235 9.66921C21.8069 9.56291 22.0442 9.36339 22.2103 9.13916C22.3747 8.91714 22.5 8.62879 22.5 8.32066H21.5C21.5 8.36224 21.4786 8.44683 21.4067 8.54394C21.3364 8.63884 21.2476 8.70466 21.1723 8.73288L21.5235 9.66921ZM20.8712 9.9138L21.5235 9.66921L21.1723 8.73288L20.5201 8.97747L20.8712 9.9138ZM21.1957 13.6563V9.44564H20.1957V13.6563H21.1957ZM21.1969 13.723C21.1962 13.6951 21.1957 13.6751 21.1957 13.6563H20.1957C20.1957 13.6911 20.1966 13.7247 20.1973 13.7504L21.1969 13.723ZM21.194 13.9378C21.201 13.8526 21.1983 13.7718 21.1969 13.723L20.1973 13.7504C20.1989 13.8085 20.1991 13.8342 20.1974 13.8554L21.194 13.9378ZM21.194 13.9372L21.194 13.9371L20.1973 13.8561L20.1973 13.8562L21.194 13.9372ZM20.3554 13.5303L20.3554 13.5303L21.0359 14.2631L21.0359 14.2631L20.3554 13.5303ZM21.1957 17.7607V13.8967H20.1957V17.7607H21.1957ZM22.0652 18.739C22.0652 17.9795 21.5058 17.2607 20.6957 17.2607V18.2607C20.8461 18.2607 21.0652 18.4178 21.0652 18.739H22.0652ZM20.6957 19.239H21.5652V18.239H20.6957V19.239ZM18.4565 16.7825C18.4565 18.0821 19.4053 19.239 20.6957 19.239V18.239C20.065 18.239 19.4565 17.6438 19.4565 16.7825H18.4565ZM18.4565 16.4361L18.4565 16.7825L19.4565 16.7825L19.4565 16.4361L18.4565 16.4361ZM17.6219 17.2824C18.1587 17.2824 18.6993 17.1356 19.1888 16.8789L18.7242 15.9933C18.3608 16.184 17.9784 16.2824 17.6219 16.2824V17.2824ZM17.1219 15.3151V16.7824H18.1219V15.3151H17.1219ZM17.6217 15.8151H17.6219V14.8151H17.6217V15.8151ZM18.1217 17.7607V15.3151H17.1217V17.7607H18.1217ZM18.9912 18.7389C18.9912 17.9793 18.432 17.2607 17.6217 17.2607V18.2607C17.7722 18.2607 17.9912 18.4176 17.9912 18.7389H18.9912ZM17.6217 19.2389H18.4912V18.2389H17.6217V19.2389ZM16.0184 18.4979C16.417 18.9463 16.983 19.2389 17.6217 19.2389V18.2389C17.3004 18.2389 16.9968 18.0933 16.7658 17.8335L16.0184 18.4979ZM15.3825 16.7825C15.3825 17.4424 15.6206 18.0503 16.0184 18.4979L16.7658 17.8335C16.534 17.5728 16.3825 17.2025 16.3825 16.7825H15.3825ZM15.3825 16.7824V16.7825H16.3825V16.7824H15.3825ZM10.736 17.2824H15.8825V16.2824H10.736V17.2824ZM10.148 18.0567C10.505 17.7773 10.8319 17.4557 11.1234 17.0986L10.3487 16.4663C10.1027 16.7676 9.82871 17.0368 9.53183 17.2691L10.148 18.0567ZM10.1738 17.1629H9.83993V18.1629H10.1738V17.1629ZM11.6304 18.7389C11.6304 17.9255 11.032 17.1629 10.1738 17.1629V18.1629C10.3722 18.1629 10.6304 18.3638 10.6304 18.7389H11.6304ZM6.78254 19.2389H11.1304V18.2389H6.78254V19.2389ZM6.28254 18.7389V18.7389H7.28254V18.7389H6.28254ZM2 19.2389H6.78254V18.2389H2V19.2389ZM4.17391 15.7933C2.64345 15.7933 1.5 17.1691 1.5 18.7389H2.5C2.5 17.6074 3.30319 16.7933 4.17391 16.7933V15.7933ZM6.78254 15.7933H4.17391V16.7933H6.78254V15.7933ZM6.28254 14.5814V16.2933H7.28254V14.5814H6.28254ZM11.1655 10.6617C8.52495 10.2126 6.28254 11.9563 6.28254 14.5814H7.28254C7.28254 12.6332 8.90966 11.2924 10.9979 11.6475L11.1655 10.6617ZM15.9724 11.5402L11.1716 10.6628L10.9918 11.6465L15.7926 12.524L15.9724 11.5402ZM16.719 8.1943L15.4115 11.8643L16.3536 12.1999L17.661 8.5299L16.719 8.1943ZM18.9796 6.50004C18.4847 6.50004 18.0004 6.70747 17.613 7.00228C17.2233 7.29893 16.8896 7.71534 16.719 8.1943L17.661 8.5299C17.7572 8.25974 17.9597 7.99512 18.2187 7.79802C18.48 7.59908 18.7571 7.50004 18.9796 7.50004V6.50004ZM19.3912 6.50004H18.9796V7.50004H19.3912V6.50004ZM19.8221 7.25374L19.8221 7.25373L18.9603 6.74636L18.9603 6.74638L19.8221 7.25374ZM19.3537 6.50147L19.3534 6.50149L19.429 7.49863L19.429 7.49863L19.3537 6.50147ZM19.3542 6.50143C19.3541 6.50143 19.3541 6.50143 19.3541 6.50143L19.4286 7.49866C19.4286 7.49866 19.4286 7.49866 19.4286 7.49866L19.3542 6.50143ZM18.8914 7V7.00004H19.8914V7H18.8914ZM20.6957 6.5H19.3914V7.5H20.6957V6.5Z" fill="#0E141F"/>
<defs>
<radialGradient id="paint0_radial_0_545" cx="0" cy="0" r="1" gradientUnits="userSpaceOnUse" gradientTransform="translate(20.9958 19.5) scale(3.00568 1.56102)">
<stop stop-color="#181818"/>
<stop offset="1" stop-color="#181818" stop-opacity="0.01"/>
</radialGradient>
<radialGradient id="paint1_radial_0_545" cx="0" cy="0" r="1" gradientUnits="userSpaceOnUse" gradientTransform="translate(2.99579 22.5) scale(3.00568 1.51427)">
<stop stop-color="#181818"/>
<stop offset="1" stop-color="#181818" stop-opacity="0.01"/>
</radialGradient>
<linearGradient id="paint2_linear_0_545" x1="21.7166" y1="21.0119" x2="21.7166" y2="17.9998" gradientUnits="userSpaceOnUse">
<stop stop-color="#181818" stop-opacity="0.01"/>
<stop offset="0.5" stop-color="#181818"/>
<stop offset="1" stop-color="#181818" stop-opacity="0.01"/>
</linearGradient>
<linearGradient id="paint3_linear_0_545" x1="0.347692" y1="7.24456" x2="0.347692" y2="18.4944" gradientUnits="userSpaceOnUse">
<stop stop-color="white"/>
<stop offset="0.0416667" stop-color="white" stop-opacity="0.235294"/>
<stop offset="0.958333" stop-color="white" stop-opacity="0.156863"/>
<stop offset="1" stop-color="white" stop-opacity="0.392157"/>
</linearGradient>
</defs>
</svg>
