<svg width="64" height="64" viewBox="0 0 64 64" fill="none" xmlns="http://www.w3.org/2000/svg">
<rect opacity="0.6" x="57.6" y="48" width="6.4" height="5" fill="url(#paint0_radial_0_420)"/>
<rect opacity="0.6" x="6.40002" y="53" width="6.4" height="5" transform="rotate(180 6.40002 53)" fill="url(#paint1_radial_0_420)"/>
<rect opacity="0.6" x="6.40002" y="48" width="51.2" height="5" fill="url(#paint2_linear_0_420)"/>
<path d="M52.4558 40.5125V44.3621C52.4558 47.1634 54.7268 49.4345 57.5282 49.4345H60.0644C60.0644 48.0338 58.929 46.8983 57.5282 46.8983V36.8804C56.0583 38.0826 53.3679 39.7315 52.4558 40.5125Z" fill="#6B8F9C"/>
<path d="M9.34047 43.0939C5.83881 43.0939 3 45.9327 3 49.4344H16.9491L19.2615 46.1534L16.9491 43.0939H9.34047Z" fill="#325763"/>
<path d="M48.5634 40.5578V44.362C49.8659 44.362 51.212 44.0441 52.4558 43.4641C53.1347 43.1475 53.7838 42.754 54.3774 42.2886C56.1953 40.8637 57.3384 38.92 57.5282 36.8802C57.5475 36.6733 57.5282 36.4656 57.5282 36.2572V25.3406L48.8552 25.4987C48.8551 25.4987 48.5634 37.7354 48.5634 40.5578Z" fill="#FAE8AC"/>
<path d="M60.0645 20.7754L57.5283 19H53.724L51.1117 22.7217L53.724 26.6086C53.724 26.6086 58.3842 25.0552 59.4305 24.7064C60.4767 24.3577 61.3325 23.3306 61.3325 22.424C61.3325 21.5173 61.3325 20.7754 61.3325 20.7754H60.0645Z" fill="#F6D76F"/>
<path d="M52.5232 19.0001C50.4309 19.0001 48.0821 20.5892 47.3037 22.5314L43.4904 32.0463V44.3621C43.4904 45.7621 44.0584 47.0301 44.9766 47.9483C45.8946 48.8664 47.1628 49.4345 48.5628 49.4345H51.099C51.099 48.0333 49.964 46.8983 48.5628 46.8983V40.5579C49.2214 40.5579 49.9132 40.4076 50.5688 40.1402C50.5756 40.1374 50.5825 40.1349 50.5893 40.1322C52.282 39.4332 53.7238 37.9564 53.7238 36.2578V22.7917L52.5868 20.8992L53.7238 19.0001H52.5232V19.0001Z" fill="#325763"/>
<path d="M51.9486 20.8959C51.9486 21.9041 52.7323 22.7258 53.724 22.7917V19.0001C52.7322 19.0661 51.9486 19.8878 51.9486 20.8959Z" fill="#05232E"/>
<path d="M16.9491 38.6557V49.4345H29.63C29.63 47.8938 28.381 46.6447 26.8402 46.6447H25.8663C26.8199 45.9815 27.6962 45.2156 28.4799 44.3621H43.4904L46.7724 37.5619L43.4904 32.0463L29.4881 29.7714C22.5921 28.7289 16.9491 32.7273 16.9491 38.6557Z" fill="#6B8F9C"/>
<g opacity="0.5">
<mask id="path-11-inside-1_0_420" fill="white">
<path fill-rule="evenodd" clip-rule="evenodd" d="M57.5282 19L60.0645 20.7754H61.3325V22.424C61.3325 23.3306 60.4767 24.3577 59.4304 24.7064L57.528 25.3406L57.5282 25.3406V36.2572C57.5282 36.3266 57.5304 36.3959 57.5325 36.4651V36.4652V36.4653V36.4655V36.4656V36.4656V36.4657V36.4658V36.4658C57.5368 36.6043 57.5411 36.7424 57.5282 36.8802L57.5282 36.8804L57.5282 36.8804V46.8983C58.929 46.8983 60.0644 48.0338 60.0644 49.4345H57.5282C54.7268 49.4345 52.4558 47.1634 52.4558 44.3621L52.4558 43.4641C51.212 44.0441 49.8659 44.362 48.5634 44.362V40.5578H48.5628V46.8983C49.9641 46.8983 51.099 48.0333 51.099 49.4345H48.5628C47.1628 49.4345 45.8947 48.8663 44.9766 47.9483C44.0585 47.0301 43.4904 45.7621 43.4904 44.3621H28.4799C27.6962 45.2156 26.8199 45.9815 25.8663 46.6447H26.8402C28.381 46.6447 29.63 47.8938 29.63 49.4345H16.9491L16.9491 49.4344H3C3 45.9327 5.83881 43.0939 9.34047 43.0939H16.9491L16.9491 38.6557C16.9491 32.7273 22.5921 28.7289 29.4881 29.7714L43.4904 32.0463L43.4904 32.0464V32.0463L47.3038 22.5314C48.0821 20.5892 50.4309 19.0001 52.5233 19.0001H53.7239L53.724 19H57.5282Z"/>
</mask>
<path d="M60.0645 20.7754L59.491 21.5946C59.6591 21.7123 59.8593 21.7754 60.0645 21.7754V20.7754ZM57.5282 19L58.1017 18.1808C57.9336 18.0631 57.7334 18 57.5282 18V19ZM61.3325 20.7754H62.3325C62.3325 20.2231 61.8848 19.7754 61.3325 19.7754V20.7754ZM59.4304 24.7064L59.1142 23.7578L59.1142 23.7578L59.4304 24.7064ZM57.528 25.3406L57.2118 24.3919C56.7431 24.5482 56.4587 25.0233 56.5425 25.5102C56.6263 25.9971 57.0531 26.3498 57.5471 26.3404L57.528 25.3406ZM57.5282 25.3406H58.5282C58.5282 25.0721 58.4202 24.8148 58.2286 24.6268C58.0369 24.4387 57.7776 24.3357 57.5092 24.3408L57.5282 25.3406ZM57.5325 36.4651H58.5325C58.5325 36.4548 58.5323 36.4445 58.532 36.4342L57.5325 36.4651ZM57.5325 36.4658H56.5325C56.5325 36.4761 56.5327 36.4864 56.533 36.4967L57.5325 36.4658ZM57.5282 36.8802L56.5325 36.7875L56.5325 36.7876L57.5282 36.8802ZM57.5282 36.8804L56.5325 36.7878C56.4952 37.1887 56.7019 37.5728 57.057 37.7625C57.4121 37.9521 57.8463 37.9104 58.1588 37.6565L57.5282 36.8804ZM57.5282 36.8804H58.5282C58.5282 36.4946 58.3063 36.1433 57.958 35.9775C57.6097 35.8117 57.197 35.861 56.8976 36.1043L57.5282 36.8804ZM57.5282 46.8983H56.5282C56.5282 47.4506 56.9759 47.8983 57.5282 47.8983V46.8983ZM60.0644 49.4345V50.4345C60.6167 50.4345 61.0644 49.9868 61.0644 49.4345H60.0644ZM52.4558 44.3621L53.4558 44.3621L53.4558 44.3621L52.4558 44.3621ZM52.4558 43.4641L53.4558 43.4641C53.4558 43.1224 53.2813 42.8043 52.9931 42.6207C52.7049 42.4371 52.3429 42.4134 52.0332 42.5578L52.4558 43.4641ZM48.5634 44.362H47.5634C47.5634 44.9143 48.0111 45.362 48.5634 45.362V44.362ZM48.5634 40.5578H49.5634C49.5634 40.0056 49.1156 39.5578 48.5634 39.5578V40.5578ZM48.5628 40.5578V39.5578C48.0105 39.5578 47.5628 40.0056 47.5628 40.5578H48.5628ZM48.5628 46.8983H47.5628C47.5628 47.4506 48.0105 47.8983 48.5628 47.8983V46.8983ZM51.099 49.4345V50.4345C51.6513 50.4345 52.099 49.9868 52.099 49.4345H51.099ZM44.9766 47.9483L44.2695 48.6554L44.2695 48.6554L44.9766 47.9483ZM43.4904 44.3621L44.4904 44.3621C44.4904 43.8098 44.0427 43.3621 43.4904 43.3621V44.3621ZM28.4799 44.3621V43.3621C28.1999 43.3621 27.9327 43.4795 27.7433 43.6857L28.4799 44.3621ZM25.8663 46.6447L25.2954 45.8237C24.9366 46.0733 24.7814 46.5269 24.9121 46.9439C25.0429 47.3609 25.4293 47.6447 25.8663 47.6447V46.6447ZM29.63 49.4345V50.4345C30.1823 50.4345 30.63 49.9868 30.63 49.4345H29.63ZM16.9491 49.4345L15.9491 49.4266C15.947 49.6932 16.0514 49.9496 16.2392 50.1388C16.4269 50.3281 16.6825 50.4345 16.9491 50.4345V49.4345ZM16.9491 49.4344L17.9491 49.4423C17.9512 49.1758 17.8468 48.9194 17.659 48.7301C17.4712 48.5409 17.2157 48.4344 16.9491 48.4344V49.4344ZM3 49.4344H2C2 49.9867 2.44772 50.4344 3 50.4344V49.4344ZM16.9491 43.0939V44.0939C17.2143 44.0939 17.4687 43.9886 17.6562 43.801C17.8437 43.6135 17.9491 43.3592 17.9491 43.0939L16.9491 43.0939ZM16.9491 38.6557L15.9491 38.6557L15.9491 38.6557L16.9491 38.6557ZM29.4881 29.7714L29.6485 28.7842L29.6375 28.7826L29.4881 29.7714ZM43.4904 32.0463L44.3523 31.5393C44.2015 31.2829 43.9444 31.107 43.6507 31.0593L43.4904 32.0463ZM43.4904 32.0464L42.6285 32.5534C42.8572 32.9422 43.3179 33.1297 43.7531 33.0112C44.1884 32.8927 44.4904 32.4974 44.4904 32.0464H43.4904ZM43.4904 32.0463L42.5622 31.6743C42.5148 31.7926 42.4904 31.9189 42.4904 32.0463H43.4904ZM47.3038 22.5314L48.232 22.9034L48.232 22.9034L47.3038 22.5314ZM53.7239 19.0001V20.0001C54.003 20.0001 54.2694 19.8835 54.4587 19.6784L53.7239 19.0001ZM53.724 19V18C53.4449 18 53.1785 18.1166 52.9892 18.3217L53.724 19ZM60.6379 19.9562L58.1017 18.1808L56.9548 19.8192L59.491 21.5946L60.6379 19.9562ZM61.3325 19.7754H60.0645V21.7754H61.3325V19.7754ZM62.3325 22.424V20.7754H60.3325V22.424H62.3325ZM59.7467 25.6551C60.4627 25.4165 61.0899 24.9572 61.542 24.4146C61.9866 23.8811 62.3325 23.1789 62.3325 22.424H60.3325C60.3325 22.5757 60.2505 22.8403 60.0056 23.1342C59.7682 23.4191 59.4444 23.6477 59.1142 23.7578L59.7467 25.6551ZM57.8442 26.2893L59.7467 25.6551L59.1142 23.7578L57.2118 24.3919L57.8442 26.2893ZM57.5092 24.3408L57.5089 24.3408L57.5471 26.3404L57.5473 26.3404L57.5092 24.3408ZM58.5282 36.2572V25.3406H56.5282V36.2572H58.5282ZM58.532 36.4342C58.5298 36.3624 58.5282 36.3085 58.5282 36.2572H56.5282C56.5282 36.3446 56.5309 36.4293 56.533 36.496L58.532 36.4342ZM58.5325 36.4652V36.4651H56.5325V36.4652H58.5325ZM58.5325 36.4653V36.4652H56.5325V36.4653H58.5325ZM58.5325 36.4655V36.4653H56.5325V36.4655H58.5325ZM58.5325 36.4656V36.4655H56.5325V36.4656H58.5325ZM58.5325 36.4656V36.4656H56.5325V36.4656H58.5325ZM58.5325 36.4657V36.4656H56.5325V36.4657H58.5325ZM58.5325 36.4658V36.4657H56.5325V36.4658H58.5325ZM58.5325 36.4658V36.4658H56.5325V36.4658H58.5325ZM58.5239 36.9729C58.5434 36.7632 58.536 36.563 58.532 36.4349L56.533 36.4967C56.5376 36.6456 56.5387 36.7216 56.5325 36.7875L58.5239 36.9729ZM58.5239 36.973L58.5239 36.9728L56.5325 36.7876L56.5325 36.7878L58.5239 36.973ZM56.8976 36.1043L56.8976 36.1043L58.1588 37.6565L58.1588 37.6565L56.8976 36.1043ZM58.5282 46.8983V36.8804H56.5282V46.8983H58.5282ZM61.0644 49.4345C61.0644 47.4815 59.4813 45.8983 57.5282 45.8983V47.8983C58.3767 47.8983 59.0644 48.586 59.0644 49.4345H61.0644ZM57.5282 50.4345H60.0644V48.4345H57.5282V50.4345ZM51.4558 44.3621C51.4558 47.7157 54.1745 50.4345 57.5282 50.4345V48.4345C55.2791 48.4345 53.4558 46.6112 53.4558 44.3621H51.4558ZM51.4558 43.4641L51.4558 44.3621L53.4558 44.3621L53.4558 43.4641L51.4558 43.4641ZM48.5634 45.362C50.0251 45.362 51.5148 45.0063 52.8784 44.3704L52.0332 42.5578C50.9093 43.0819 49.7067 43.362 48.5634 43.362V45.362ZM47.5634 40.5578V44.362H49.5634V40.5578H47.5634ZM48.5628 41.5578H48.5634V39.5578H48.5628V41.5578ZM49.5628 46.8983V40.5578H47.5628V46.8983H49.5628ZM52.099 49.4345C52.099 47.481 50.5163 45.8983 48.5628 45.8983V47.8983C49.4118 47.8983 50.099 48.5856 50.099 49.4345H52.099ZM48.5628 50.4345H51.099V48.4345H48.5628V50.4345ZM44.2695 48.6554C45.3672 49.7531 46.8867 50.4345 48.5628 50.4345V48.4345C47.439 48.4345 46.4221 47.9796 45.6837 47.2412L44.2695 48.6554ZM42.4904 44.3621C42.4904 46.0382 43.1717 47.5576 44.2695 48.6554L45.6837 47.2412C44.9452 46.5027 44.4904 45.4859 44.4904 44.3621L42.4904 44.3621ZM28.4799 45.3621H43.4904V43.3621H28.4799V45.3621ZM26.4373 47.4657C27.4515 46.7604 28.3832 45.9459 29.2165 45.0385L27.7433 43.6857C27.0092 44.4852 26.1884 45.2027 25.2954 45.8237L26.4373 47.4657ZM26.8402 45.6447H25.8663V47.6447H26.8402V45.6447ZM30.63 49.4345C30.63 47.3416 28.9333 45.6447 26.8402 45.6447V47.6447C27.8287 47.6447 28.63 48.4461 28.63 49.4345H30.63ZM16.9491 50.4345H29.63V48.4345H16.9491V50.4345ZM15.9491 49.4265L15.9491 49.4266L17.9491 49.4425L17.9491 49.4423L15.9491 49.4265ZM3 50.4344H16.9491V48.4344H3V50.4344ZM9.34047 42.0939C5.28653 42.0939 2 45.3805 2 49.4344H4C4 46.485 6.39109 44.0939 9.34047 44.0939V42.0939ZM16.9491 42.0939H9.34047V44.0939H16.9491V42.0939ZM15.9491 38.6557L15.9491 43.0939L17.9491 43.0939L17.9491 38.6557L15.9491 38.6557ZM29.6375 28.7826C22.3339 27.6785 15.9491 31.9314 15.9491 38.6557H17.9491C17.9491 33.5232 22.8503 29.7793 29.3386 30.7601L29.6375 28.7826ZM43.6507 31.0593L29.6484 28.7843L29.3277 30.7584L43.33 33.0334L43.6507 31.0593ZM44.3523 31.5393L44.3523 31.5393L42.6284 32.5533L42.6285 32.5534L44.3523 31.5393ZM42.4904 32.0463V32.0464H44.4904V32.0463H42.4904ZM46.3755 22.1594L42.5622 31.6743L44.4186 32.4183L48.232 22.9034L46.3755 22.1594ZM52.5233 18.0001C51.2366 18.0001 49.9345 18.4825 48.8604 19.2092C47.7863 19.9359 46.8542 20.965 46.3755 22.1594L48.232 22.9034C48.5317 22.1556 49.1632 21.4191 49.9811 20.8657C50.7991 20.3123 51.7177 20.0001 52.5233 20.0001V18.0001ZM53.7239 18.0001H52.5233V20.0001H53.7239V18.0001ZM52.9892 18.3217L52.9891 18.3219L54.4587 19.6784L54.4588 19.6783L52.9892 18.3217ZM57.5282 18H53.724V20H57.5282V18Z" fill="url(#paint3_linear_0_420)" mask="url(#path-11-inside-1_0_420)"/>
</g>
<path opacity="0.5" d="M60.0645 20.7754L59.7777 21.185C59.8618 21.2438 59.9619 21.2754 60.0645 21.2754V20.7754ZM57.5282 19L57.815 18.5904C57.7309 18.5316 57.6308 18.5 57.5282 18.5V19ZM61.3325 20.7754H61.8325C61.8325 20.4992 61.6086 20.2754 61.3325 20.2754V20.7754ZM59.4304 24.7064L59.2723 24.2321L59.2723 24.2321L59.4304 24.7064ZM57.528 25.3406L57.3699 24.8663C57.1355 24.9444 56.9933 25.1819 57.0352 25.4254C57.0771 25.6688 57.2905 25.8452 57.5375 25.8405L57.528 25.3406ZM57.5282 25.3406H58.0282C58.0282 25.2063 57.9742 25.0777 57.8784 24.9837C57.7826 24.8897 57.6529 24.8381 57.5187 24.8407L57.5282 25.3406ZM57.5325 36.4651H58.0325C58.0325 36.4599 58.0324 36.4548 58.0323 36.4496L57.5325 36.4651ZM57.5325 36.4658H57.0325C57.0325 36.471 57.0326 36.4761 57.0327 36.4813L57.5325 36.4658ZM57.5282 36.8802L57.0304 36.8338L57.0304 36.8339L57.5282 36.8802ZM57.5282 36.8804L57.0304 36.8341C57.0117 37.0345 57.1151 37.2266 57.2926 37.3214C57.4702 37.4163 57.6873 37.3954 57.8435 37.2685L57.5282 36.8804ZM57.5282 36.8804H58.0282C58.0282 36.6875 57.9173 36.5118 57.7431 36.4289C57.569 36.346 57.3626 36.3707 57.2129 36.4923L57.5282 36.8804ZM57.5282 46.8983H57.0282C57.0282 47.1745 57.2521 47.3983 57.5282 47.3983V46.8983ZM60.0644 49.4345V49.9345C60.3406 49.9345 60.5644 49.7107 60.5644 49.4345H60.0644ZM52.4558 44.3621L52.9558 44.3621L52.9558 44.3621L52.4558 44.3621ZM52.4558 43.4641L52.9558 43.4641C52.9558 43.2932 52.8686 43.1342 52.7244 43.0424C52.5803 42.9506 52.3993 42.9387 52.2445 43.011L52.4558 43.4641ZM48.5634 44.362H48.0634C48.0634 44.6381 48.2872 44.862 48.5634 44.862V44.362ZM48.5634 40.5578H49.0634C49.0634 40.2817 48.8395 40.0578 48.5634 40.0578V40.5578ZM48.5628 40.5578V40.0578C48.2867 40.0578 48.0628 40.2817 48.0628 40.5578H48.5628ZM48.5628 46.8983H48.0628C48.0628 47.1745 48.2867 47.3983 48.5628 47.3983V46.8983ZM51.099 49.4345V49.9345C51.3752 49.9345 51.599 49.7107 51.599 49.4345H51.099ZM44.9766 47.9483L44.6231 48.3018L44.6231 48.3018L44.9766 47.9483ZM43.4904 44.3621L43.9904 44.3621C43.9904 44.086 43.7665 43.8621 43.4904 43.8621V44.3621ZM28.4799 44.3621V43.8621C28.3399 43.8621 28.2063 43.9208 28.1116 44.0239L28.4799 44.3621ZM25.8663 46.6447L25.5809 46.2342C25.4015 46.359 25.3239 46.5858 25.3892 46.7943C25.4546 47.0028 25.6478 47.1447 25.8663 47.1447V46.6447ZM29.63 49.4345V49.9345C29.9062 49.9345 30.13 49.7107 30.13 49.4345H29.63ZM16.9491 49.4345L16.4491 49.4306C16.4481 49.5638 16.5003 49.692 16.5941 49.7867C16.688 49.8813 16.8158 49.9345 16.9491 49.9345V49.4345ZM16.9491 49.4344L17.4491 49.4384C17.4501 49.3051 17.3979 49.1769 17.3041 49.0823C17.2102 48.9876 17.0824 48.9344 16.9491 48.9344V49.4344ZM3 49.4344H2.5C2.5 49.7105 2.72386 49.9344 3 49.9344V49.4344ZM16.9491 43.0939V43.5939C17.0817 43.5939 17.2089 43.5413 17.3027 43.4475C17.3964 43.3537 17.4491 43.2265 17.4491 43.0939L16.9491 43.0939ZM16.9491 38.6557L16.4491 38.6557L16.4491 38.6557L16.9491 38.6557ZM29.4881 29.7714L29.5683 29.2778L29.5628 29.277L29.4881 29.7714ZM43.4904 32.0463L43.9213 31.7928C43.8459 31.6646 43.7174 31.5766 43.5706 31.5528L43.4904 32.0463ZM43.4904 32.0464L43.0594 32.2999C43.1738 32.4943 43.4041 32.588 43.6218 32.5288C43.8394 32.4695 43.9904 32.2719 43.9904 32.0464H43.4904ZM43.4904 32.0463L43.0263 31.8603C43.0026 31.9195 42.9904 31.9826 42.9904 32.0463H43.4904ZM47.3038 22.5314L47.7679 22.7174L47.7679 22.7174L47.3038 22.5314ZM53.7239 19.0001V19.5001C53.8634 19.5001 53.9966 19.4418 54.0913 19.3392L53.7239 19.0001ZM53.724 19V18.5C53.5844 18.5 53.4512 18.5583 53.3566 18.6609L53.724 19ZM60.3512 20.3658L57.815 18.5904L57.2415 19.4096L59.7777 21.185L60.3512 20.3658ZM61.3325 20.2754H60.0645V21.2754H61.3325V20.2754ZM61.8325 22.424V20.7754H60.8325V22.424H61.8325ZM59.5885 25.1808C60.2081 24.9743 60.7595 24.5726 61.1579 24.0945C61.5526 23.6209 61.8325 23.0281 61.8325 22.424H60.8325C60.8325 22.7265 60.6845 23.1005 60.3897 23.4543C60.0986 23.8036 59.699 24.0899 59.2723 24.2321L59.5885 25.1808ZM57.6861 25.8149L59.5885 25.1808L59.2723 24.2321L57.3699 24.8663L57.6861 25.8149ZM57.5187 24.8407L57.5185 24.8407L57.5375 25.8405L57.5378 25.8405L57.5187 24.8407ZM58.0282 36.2572V25.3406H57.0282V36.2572H58.0282ZM58.0323 36.4496C58.0301 36.3791 58.0282 36.3175 58.0282 36.2572H57.0282C57.0282 36.3356 57.0306 36.4126 57.0327 36.4805L58.0323 36.4496ZM58.0325 36.4652V36.4651H57.0325V36.4652H58.0325ZM58.0325 36.4653V36.4652H57.0325V36.4653H58.0325ZM58.0325 36.4655V36.4653H57.0325V36.4655H58.0325ZM58.0325 36.4656V36.4655H57.0325V36.4656H58.0325ZM58.0325 36.4656V36.4656H57.0325V36.4656H58.0325ZM58.0325 36.4657V36.4656H57.0325V36.4657H58.0325ZM58.0325 36.4658V36.4657H57.0325V36.4658H58.0325ZM58.0325 36.4658V36.4658H57.0325V36.4658H58.0325ZM58.0261 36.9265C58.0423 36.7528 58.0364 36.5836 58.0323 36.4504L57.0327 36.4813C57.0372 36.6249 57.0399 36.732 57.0304 36.8338L58.0261 36.9265ZM58.0261 36.9267L58.0261 36.9265L57.0304 36.8339L57.0304 36.8341L58.0261 36.9267ZM57.2129 36.4923L57.2129 36.4924L57.8435 37.2685L57.8435 37.2685L57.2129 36.4923ZM58.0282 46.8983V36.8804H57.0282V46.8983H58.0282ZM60.5644 49.4345C60.5644 47.7576 59.2052 46.3983 57.5282 46.3983V47.3983C58.6529 47.3983 59.5644 48.3099 59.5644 49.4345H60.5644ZM57.5282 49.9345H60.0644V48.9345H57.5282V49.9345ZM51.9558 44.3621C51.9558 47.4396 54.4506 49.9345 57.5282 49.9345V48.9345C55.0029 48.9345 52.9558 46.8873 52.9558 44.3621H51.9558ZM51.9558 43.4641L51.9558 44.3621L52.9558 44.3621L52.9558 43.4641L51.9558 43.4641ZM48.5634 44.862C49.9455 44.862 51.3634 44.5252 52.6671 43.9173L52.2445 43.011C51.0606 43.563 49.7863 43.862 48.5634 43.862V44.862ZM48.0634 40.5578V44.362H49.0634V40.5578H48.0634ZM48.5628 41.0578H48.5634V40.0578H48.5628V41.0578ZM49.0628 46.8983V40.5578H48.0628V46.8983H49.0628ZM51.599 49.4345C51.599 47.7571 50.2402 46.3983 48.5628 46.3983V47.3983C49.6879 47.3983 50.599 48.3094 50.599 49.4345H51.599ZM48.5628 49.9345H51.099V48.9345H48.5628V49.9345ZM44.6231 48.3018C45.631 49.3097 47.0248 49.9345 48.5628 49.9345V48.9345C47.3009 48.9345 46.1584 48.423 45.3302 47.5947L44.6231 48.3018ZM42.9904 44.3621C42.9904 45.9002 43.6151 47.2938 44.6231 48.3018L45.3302 47.5947C44.5018 46.7664 43.9904 45.624 43.9904 44.3621L42.9904 44.3621ZM28.4799 44.8621H43.4904V43.8621H28.4799V44.8621ZM26.1518 47.0552C27.1357 46.3709 28.0397 45.5807 28.8482 44.7003L28.1116 44.0239C27.3527 44.8504 26.5042 45.5921 25.5809 46.2342L26.1518 47.0552ZM26.8402 46.1447H25.8663V47.1447H26.8402V46.1447ZM30.13 49.4345C30.13 47.6177 28.6572 46.1447 26.8402 46.1447V47.1447C28.1049 47.1447 29.13 48.17 29.13 49.4345H30.13ZM16.9491 49.9345H29.63V48.9345H16.9491V49.9345ZM16.4491 49.4304L16.4491 49.4306L17.4491 49.4385L17.4491 49.4384L16.4491 49.4304ZM3 49.9344H16.9491V48.9344H3V49.9344ZM9.34047 42.5939C5.56267 42.5939 2.5 45.6566 2.5 49.4344H3.5C3.5 46.2089 6.11495 43.5939 9.34047 43.5939V42.5939ZM16.9491 42.5939H9.34047V43.5939H16.9491V42.5939ZM16.4491 38.6557L16.4491 43.0939L17.4491 43.0939L17.4491 38.6557L16.4491 38.6557ZM29.5628 29.277C22.463 28.2037 16.4491 32.3293 16.4491 38.6557H17.4491C17.4491 33.1252 22.7212 29.2541 29.4133 30.2657L29.5628 29.277ZM43.5706 31.5528L29.5683 29.2778L29.4079 30.2649L43.4102 32.5398L43.5706 31.5528ZM43.9214 31.7928L43.9213 31.7928L43.0594 32.2998L43.0594 32.2999L43.9214 31.7928ZM42.9904 32.0463V32.0464H43.9904V32.0463H42.9904ZM46.8397 22.3454L43.0263 31.8603L43.9545 32.2323L47.7679 22.7174L46.8397 22.3454ZM52.5233 18.5001C51.3568 18.5001 50.1507 18.9399 49.1406 19.6233C48.1305 20.3067 47.2736 21.2627 46.8397 22.3454L47.7679 22.7174C48.1123 21.8579 48.819 21.0483 49.701 20.4516C50.583 19.8548 51.5974 19.5001 52.5233 19.5001V18.5001ZM53.7239 18.5001H52.5233V19.5001H53.7239V18.5001ZM53.3566 18.6609L53.3565 18.661L54.0913 19.3392L54.0914 19.3391L53.3566 18.6609ZM57.5282 18.5H53.724V19.5H57.5282V18.5Z" fill="#0E141F"/>
<defs>
<radialGradient id="paint0_radial_0_420" cx="0" cy="0" r="1" gradientUnits="userSpaceOnUse" gradientTransform="translate(57.591 50.5) scale(6.41211 2.05785)">
<stop stop-color="#181818"/>
<stop offset="1" stop-color="#181818" stop-opacity="0.01"/>
</radialGradient>
<radialGradient id="paint1_radial_0_420" cx="0" cy="0" r="1" gradientUnits="userSpaceOnUse" gradientTransform="translate(6.39104 55.5) scale(6.41211 2.12283)">
<stop stop-color="#181818"/>
<stop offset="1" stop-color="#181818" stop-opacity="0.01"/>
</radialGradient>
<linearGradient id="paint2_linear_0_420" x1="59.6383" y1="53.0198" x2="59.6383" y2="47.9996" gradientUnits="userSpaceOnUse">
<stop stop-color="#181818" stop-opacity="0.01"/>
<stop offset="0.5" stop-color="#181818"/>
<stop offset="1" stop-color="#181818" stop-opacity="0.01"/>
</linearGradient>
<linearGradient id="paint3_linear_0_420" x1="-3.91464" y1="18.8328" x2="-3.91464" y2="49.6018" gradientUnits="userSpaceOnUse">
<stop stop-color="white"/>
<stop offset="0.0631645" stop-color="white" stop-opacity="0.235294"/>
<stop offset="0.950563" stop-color="white" stop-opacity="0.156863"/>
<stop offset="1" stop-color="white" stop-opacity="0.392157"/>
</linearGradient>
</defs>
</svg>
