<svg width="48" height="48" viewBox="0 0 48 48" fill="none" xmlns="http://www.w3.org/2000/svg">
<rect opacity="0.6" x="42" y="36" width="6" height="4" fill="url(#paint0_radial_0_463)"/>
<rect opacity="0.6" x="6" y="40" width="6" height="4" transform="rotate(180 6 40)" fill="url(#paint1_radial_0_463)"/>
<rect opacity="0.6" x="6" y="35" width="36" height="5" fill="url(#paint2_linear_0_463)"/>
<path d="M38.6088 29.6572V32.6379C38.6088 34.807 40.2439 36.5655 42.261 36.5655H44.0871C44.0871 35.4809 43.2695 34.6017 42.261 34.6017V26.8448C41.2026 27.7757 39.2655 29.0524 38.6088 29.6572Z" fill="#6B8F9C"/>
<path d="M7.5652 31.6559C5.04397 31.6559 3 33.854 3 36.5654H13.0435L14.7085 34.0249L13.0435 31.6559H7.5652Z" fill="#325763"/>
<path d="M35.806 29.6922V32.6378C36.7439 32.6378 37.7131 32.3917 38.6086 31.9426C39.0975 31.6974 39.5648 31.3927 39.9922 31.0323C41.3011 29.929 42.1242 28.424 42.2608 26.8446C42.2747 26.6844 42.2608 26.5236 42.2608 26.3622V17.9095L36.0162 18.032C36.0161 18.032 35.806 27.5068 35.806 29.6922Z" fill="#FAE8AC"/>
<path d="M44.087 14.3747L42.2609 13H39.5218L37.6409 15.8817L39.5218 18.8914C39.5218 18.8914 42.8772 17.6885 43.6305 17.4185C44.3838 17.1485 45 16.3532 45 15.6512C45 14.9491 45 14.3747 45 14.3747H44.087Z" fill="#F6D76F"/>
<path d="M38.6572 13.0001C37.1507 13.0001 35.4595 14.2305 34.8991 15.7344L32.1534 23.1018V32.6379C32.1534 33.7219 32.5625 34.7037 33.2235 35.4147C33.8845 36.1255 34.7976 36.5654 35.8056 36.5654H37.6317C37.6317 35.4805 36.8145 34.6017 35.8056 34.6017V29.6922C36.2799 29.6922 36.778 29.5759 37.25 29.3688C37.2549 29.3667 37.2599 29.3648 37.2647 29.3627C38.4836 28.8215 39.5217 27.6779 39.5217 26.3627V15.9359L38.703 14.4706L39.5217 13.0001H38.6572V13.0001Z" fill="#325763"/>
<path d="M38.2435 14.468C38.2435 15.2486 38.8078 15.8849 39.5218 15.9359V13.0001C38.8077 13.0512 38.2435 13.6874 38.2435 14.468Z" fill="#05232E"/>
<path d="M13.0435 28.2194V36.5654H22.1739C22.1739 35.3725 21.2746 34.4053 20.1652 34.4053H19.464C20.1506 33.8918 20.7815 33.2987 21.3458 32.6379H32.1535L34.5165 27.3725L32.1535 23.1018L22.0717 21.3402C17.1065 20.5331 13.0435 23.629 13.0435 28.2194Z" fill="#6B8F9C"/>
<g opacity="0.5">
<mask id="path-11-inside-1_0_463" fill="white">
<path fill-rule="evenodd" clip-rule="evenodd" d="M42.2609 13L44.087 14.3747H45V15.6512C45 16.3532 44.3838 17.1485 43.6305 17.4185L42.2609 17.9095V26.3622C42.2609 26.416 42.2624 26.4697 42.2639 26.5234L42.264 26.5236C42.267 26.6309 42.2701 26.7379 42.2609 26.8446L42.2608 26.8449L42.261 26.8448V34.6017C43.2696 34.6017 44.0871 35.4809 44.0871 36.5655H42.261C40.2439 36.5655 38.6088 34.807 38.6088 32.6379V31.9425L38.6087 31.9426C37.7131 32.3917 36.7439 32.6378 35.8061 32.6378V29.6922H35.8057V34.6017C36.8146 34.6017 37.6318 35.4805 37.6318 36.5654H35.8057C34.7977 36.5654 33.8846 36.1255 33.2236 35.4147C32.5625 34.7037 32.1535 33.7219 32.1535 32.6379H21.3458C20.7815 33.2987 20.1506 33.8918 19.464 34.4053H20.1652C21.2746 34.4053 22.1739 35.3725 22.1739 36.5654H13.0435L13.0435 36.5654H3C3 33.854 5.04397 31.6559 7.5652 31.6559H13.0435L13.0435 28.2194C13.0435 23.629 17.1065 20.5331 22.0717 21.3402L32.1535 23.1018L34.8992 15.7344C35.4596 14.2305 37.1508 13.0001 38.6573 13.0001H39.5217L39.5218 13H42.2609Z"/>
</mask>
<path d="M44.087 14.3747L43.4855 15.1736C43.6589 15.3041 43.87 15.3747 44.087 15.3747V14.3747ZM42.2609 13L42.8623 12.2011C42.6889 12.0706 42.4778 12 42.2609 12V13ZM45 14.3747H46C46 13.8224 45.5523 13.3747 45 13.3747V14.3747ZM43.6305 17.4185L43.293 16.4772L43.293 16.4772L43.6305 17.4185ZM42.2609 17.9095L41.9234 16.9682C41.526 17.1107 41.2609 17.4873 41.2609 17.9095H42.2609ZM42.2639 26.5234L41.2643 26.552C41.2646 26.5607 41.265 26.5694 41.2654 26.5781L42.2639 26.5234ZM42.264 26.5236L43.2635 26.4949C43.2633 26.4862 43.2629 26.4776 43.2625 26.4689L42.264 26.5236ZM42.2609 26.8446L43.2568 26.9351L43.2571 26.9308L42.2609 26.8446ZM42.2608 26.8449L41.2649 26.7544C41.228 27.1609 41.4418 27.5491 41.8051 27.7351C42.1684 27.9211 42.6083 27.8676 42.9165 27.6L42.2608 26.8449ZM42.261 26.8448H43.261C43.261 26.4531 43.0323 26.0975 42.6759 25.935C42.3195 25.7724 41.901 25.833 41.6053 26.0898L42.261 26.8448ZM42.261 34.6017H41.261C41.261 35.154 41.7087 35.6017 42.261 35.6017V34.6017ZM44.0871 36.5655V37.5655C44.6394 37.5655 45.0871 37.1178 45.0871 36.5655H44.0871ZM38.6088 31.9425H39.6088C39.6088 31.5959 39.4293 31.2741 39.1345 31.0918C38.8397 30.9096 38.4716 30.8931 38.1616 31.0481L38.6088 31.9425ZM38.6087 31.9426L38.1615 31.0481L38.1604 31.0487L38.6087 31.9426ZM35.8061 32.6378H34.8061C34.8061 33.1901 35.2538 33.6378 35.8061 33.6378V32.6378ZM35.8061 29.6922H36.8061C36.8061 29.14 36.3584 28.6922 35.8061 28.6922V29.6922ZM35.8057 29.6922V28.6922C35.2534 28.6922 34.8057 29.14 34.8057 29.6922H35.8057ZM35.8057 34.6017H34.8057C34.8057 35.1539 35.2534 35.6017 35.8057 35.6017V34.6017ZM37.6318 36.5654V37.5654C38.1841 37.5654 38.6318 37.1177 38.6318 36.5654H37.6318ZM33.2236 35.4147L32.4913 36.0956L32.4913 36.0956L33.2236 35.4147ZM32.1535 32.6379L33.1535 32.6379C33.1535 32.3727 33.0481 32.1183 32.8606 31.9308C32.6731 31.7432 32.4187 31.6379 32.1535 31.6379V32.6379ZM21.3458 32.6379V31.6379C21.0532 31.6379 20.7753 31.766 20.5853 31.9885L21.3458 32.6379ZM19.464 34.4053L18.8651 33.6045C18.5202 33.8624 18.3792 34.3122 18.5151 34.7209C18.651 35.1295 19.0333 35.4053 19.464 35.4053V34.4053ZM22.1739 36.5654V37.5654C22.7262 37.5654 23.1739 37.1177 23.1739 36.5654H22.1739ZM13.0435 36.5654L12.0446 36.519C12.0319 36.792 12.1315 37.0582 12.3201 37.2559C12.5088 37.4536 12.7702 37.5654 13.0435 37.5654V36.5654ZM13.0435 36.5654L14.0424 36.6118C14.0551 36.3388 13.9555 36.0725 13.7668 35.8749C13.5782 35.6772 13.3168 35.5654 13.0435 35.5654V36.5654ZM3 36.5654H2C2 37.1176 2.44772 37.5654 3 37.5654V36.5654ZM13.0435 31.6559V32.6559C13.3087 32.6559 13.5631 32.5506 13.7506 32.363C13.9381 32.1755 14.0435 31.9211 14.0435 31.6559L13.0435 31.6559ZM13.0435 28.2194L12.0435 28.2194L12.0435 28.2194L13.0435 28.2194ZM22.0717 21.3402L22.2438 20.3551L22.2322 20.3532L22.0717 21.3402ZM32.1535 23.1018L31.9814 24.0868C32.456 24.1698 32.9223 23.9024 33.0905 23.451L32.1535 23.1018ZM34.8992 15.7344L35.8362 16.0836L35.8362 16.0836L34.8992 15.7344ZM39.5217 13.0001V14.0001C39.8887 14.0001 40.2262 13.7991 40.401 13.4764L39.5217 13.0001ZM39.5218 13V12C39.1548 12 38.8173 12.201 38.6425 12.5237L39.5218 13ZM44.6884 13.5758L42.8623 12.2011L41.6594 13.7989L43.4855 15.1736L44.6884 13.5758ZM45 13.3747H44.087V15.3747H45V13.3747ZM46 15.6512V14.3747H44V15.6512H46ZM43.9679 18.3598C44.5471 18.1522 45.0395 17.7593 45.3882 17.3094C45.732 16.8656 46 16.2817 46 15.6512H44C44 15.7227 43.9598 15.8874 43.8072 16.0843C43.6595 16.275 43.4671 16.4148 43.293 16.4772L43.9679 18.3598ZM42.5983 18.8508L43.9679 18.3598L43.293 16.4772L41.9234 16.9682L42.5983 18.8508ZM43.2609 26.3622V17.9095H41.2609V26.3622H43.2609ZM43.2635 26.4947C43.2619 26.4388 43.2609 26.3993 43.2609 26.3622H41.2609C41.2609 26.4327 41.2629 26.5007 41.2643 26.552L43.2635 26.4947ZM43.2625 26.4689L43.2624 26.4687L41.2654 26.5781L41.2654 26.5783L43.2625 26.4689ZM43.2571 26.9308C43.2722 26.7572 43.2663 26.5925 43.2635 26.4949L41.2644 26.5523C41.2677 26.6692 41.268 26.7186 41.2646 26.7584L43.2571 26.9308ZM43.2567 26.9355L43.2568 26.9351L41.265 26.7541L41.2649 26.7544L43.2567 26.9355ZM41.6053 26.0898L41.6051 26.0899L42.9165 27.6L42.9167 27.5999L41.6053 26.0898ZM43.261 34.6017V26.8448H41.261V34.6017H43.261ZM45.0871 36.5655C45.0871 34.9983 43.8891 33.6017 42.261 33.6017V35.6017C42.65 35.6017 43.0871 35.9634 43.0871 36.5655H45.0871ZM42.261 37.5655H44.0871V35.5655H42.261V37.5655ZM37.6088 32.6379C37.6088 35.2895 39.6244 37.5655 42.261 37.5655V35.5655C40.8634 35.5655 39.6088 34.3244 39.6088 32.6379H37.6088ZM37.6088 31.9425V32.6379H39.6088V31.9425H37.6088ZM39.0559 32.837L39.056 32.8369L38.1616 31.0481L38.1615 31.0481L39.0559 32.837ZM35.8061 33.6378C36.9158 33.6378 38.0376 33.3477 39.057 32.8364L38.1604 31.0487C37.3887 31.4357 36.572 31.6378 35.8061 31.6378V33.6378ZM34.8061 29.6922V32.6378H36.8061V29.6922H34.8061ZM35.8057 30.6922H35.8061V28.6922H35.8057V30.6922ZM36.8057 34.6017V29.6922H34.8057V34.6017H36.8057ZM38.6318 36.5654C38.6318 34.9979 37.4341 33.6017 35.8057 33.6017V35.6017C36.1951 35.6017 36.6318 35.9631 36.6318 36.5654H38.6318ZM35.8057 37.5654H37.6318V35.5654H35.8057V37.5654ZM32.4913 36.0956C33.3251 36.9923 34.4967 37.5654 35.8057 37.5654V35.5654C35.0987 35.5654 34.4441 35.2587 33.9559 34.7337L32.4913 36.0956ZM31.1535 32.6379C31.1535 33.9751 31.6585 35.2001 32.4913 36.0956L33.9559 34.7337C33.4665 34.2074 33.1535 33.4687 33.1535 32.6379L31.1535 32.6379ZM21.3458 33.6379H32.1535V31.6379H21.3458V33.6379ZM20.0629 35.2061C20.81 34.6474 21.4948 34.0033 22.1063 33.2872L20.5853 31.9885C20.0682 32.5941 19.4912 33.1362 18.8651 33.6045L20.0629 35.2061ZM20.1652 33.4053H19.464V35.4053H20.1652V33.4053ZM23.1739 36.5654C23.1739 34.8899 21.8941 33.4053 20.1652 33.4053V35.4053C20.6551 35.4053 21.1739 35.855 21.1739 36.5654H23.1739ZM13.0435 37.5654H22.1739V35.5654H13.0435V37.5654ZM12.0446 36.5189L12.0446 36.519L14.0424 36.6119L14.0424 36.6118L12.0446 36.5189ZM3 37.5654H13.0435V35.5654H3V37.5654ZM7.5652 30.6559C4.42447 30.6559 2 33.3714 2 36.5654H4C4 34.3366 5.66348 32.6559 7.5652 32.6559V30.6559ZM13.0435 30.6559H7.5652V32.6559H13.0435V30.6559ZM12.0435 28.2194L12.0435 31.6559L14.0435 31.6559L14.0435 28.2194L12.0435 28.2194ZM22.2322 20.3532C16.7702 19.4653 12.0435 22.9048 12.0435 28.2194H14.0435C14.0435 24.3533 17.4429 21.6009 21.9112 22.3273L22.2322 20.3532ZM32.3256 22.1167L22.2438 20.3552L21.8996 22.3253L31.9814 24.0868L32.3256 22.1167ZM33.9621 15.3851L31.2165 22.7525L33.0905 23.451L35.8362 16.0836L33.9621 15.3851ZM38.6573 12.0001C37.6442 12.0001 36.6435 12.4065 35.8351 12.9947C35.0237 13.585 34.3223 14.4186 33.9621 15.3851L35.8362 16.0836C36.0364 15.5463 36.4608 15.0127 37.0118 14.6119C37.5657 14.2089 38.1638 14.0001 38.6573 14.0001V12.0001ZM39.5217 12.0001H38.6573V14.0001H39.5217V12.0001ZM38.6425 12.5237L38.6424 12.5238L40.401 13.4764L40.4011 13.4763L38.6425 12.5237ZM42.2609 12H39.5218V14H42.2609V12Z" fill="url(#paint3_linear_0_463)" mask="url(#path-11-inside-1_0_463)"/>
</g>
<path opacity="0.5" d="M44.087 14.3747L43.7862 14.7741C43.8729 14.8394 43.9785 14.8747 44.087 14.8747V14.3747ZM42.2609 13L42.5616 12.6005C42.4749 12.5353 42.3694 12.5 42.2609 12.5V13ZM45 14.3747H45.5C45.5 14.0985 45.2761 13.8747 45 13.8747V14.3747ZM43.6305 17.4185L43.4617 16.9478L43.4617 16.9478L43.6305 17.4185ZM42.2609 17.9095L42.0921 17.4388C41.8934 17.5101 41.7609 17.6984 41.7609 17.9095H42.2609ZM42.2639 26.5234L41.764 26.5377L41.7647 26.5507L42.2639 26.5234ZM42.264 26.5236L42.7639 26.5092L42.7632 26.4962L42.264 26.5236ZM42.2609 26.8446L42.7588 26.8899L42.759 26.8877L42.2609 26.8446ZM42.2608 26.8449L41.7629 26.7997C41.7444 27.0029 41.8513 27.197 42.033 27.29C42.2146 27.383 42.4346 27.3563 42.5887 27.2225L42.2608 26.8449ZM42.261 26.8448H42.761C42.761 26.649 42.6466 26.4712 42.4684 26.3899C42.2902 26.3086 42.081 26.3389 41.9331 26.4673L42.261 26.8448ZM42.261 34.6017H41.761C41.761 34.8778 41.9848 35.1017 42.261 35.1017V34.6017ZM44.0871 36.5655V37.0655C44.3632 37.0655 44.5871 36.8416 44.5871 36.5655H44.0871ZM38.6088 31.9425H39.1088C39.1088 31.7692 39.0191 31.6083 38.8716 31.5172C38.7242 31.4261 38.5402 31.4178 38.3852 31.4953L38.6088 31.9425ZM38.6087 31.9426L38.3851 31.4953L38.3845 31.4956L38.6087 31.9426ZM35.8061 32.6378H35.3061C35.3061 32.9139 35.5299 33.1378 35.8061 33.1378V32.6378ZM35.8061 29.6922H36.3061C36.3061 29.4161 36.0822 29.1922 35.8061 29.1922V29.6922ZM35.8057 29.6922V29.1922C35.5295 29.1922 35.3057 29.4161 35.3057 29.6922H35.8057ZM35.8057 34.6017H35.3057C35.3057 34.8778 35.5295 35.1017 35.8057 35.1017V34.6017ZM37.6318 36.5654V37.0654C37.9079 37.0654 38.1318 36.8416 38.1318 36.5654H37.6318ZM33.2236 35.4147L32.8574 35.7551L32.8574 35.7551L33.2236 35.4147ZM32.1535 32.6379L32.6535 32.6379C32.6535 32.5053 32.6008 32.3781 32.5071 32.2843C32.4133 32.1905 32.2861 32.1379 32.1535 32.1379V32.6379ZM21.3458 32.6379V32.1379C21.1995 32.1379 21.0606 32.2019 20.9656 32.3132L21.3458 32.6379ZM19.464 34.4053L19.1645 34.0049C18.9921 34.1338 18.9216 34.3587 18.9896 34.5631C19.0575 34.7674 19.2487 34.9053 19.464 34.9053V34.4053ZM22.1739 36.5654V37.0654C22.45 37.0654 22.6739 36.8416 22.6739 36.5654H22.1739ZM13.0435 36.5654L12.544 36.5422C12.5377 36.6787 12.5875 36.8118 12.6818 36.9107C12.7762 37.0095 12.9069 37.0654 13.0435 37.0654V36.5654ZM13.0435 36.5654L13.543 36.5886C13.5493 36.4521 13.4995 36.319 13.4052 36.2201C13.3108 36.1213 13.1801 36.0654 13.0435 36.0654V36.5654ZM3 36.5654H2.5C2.5 36.8415 2.72386 37.0654 3 37.0654V36.5654ZM13.0435 31.6559V32.1559C13.1761 32.1559 13.3033 32.1033 13.3971 32.0095C13.4908 31.9157 13.5435 31.7885 13.5435 31.6559L13.0435 31.6559ZM13.0435 28.2194L12.5435 28.2194L12.5435 28.2194L13.0435 28.2194ZM22.0717 21.3402L22.1578 20.8477L22.1519 20.8467L22.0717 21.3402ZM32.1535 23.1018L32.0674 23.5943C32.3048 23.6358 32.5379 23.5021 32.622 23.2764L32.1535 23.1018ZM34.8992 15.7344L35.3677 15.909L35.3677 15.909L34.8992 15.7344ZM39.5217 13.0001V13.5001C39.7052 13.5001 39.874 13.3996 39.9614 13.2382L39.5217 13.0001ZM39.5218 13V12.5C39.3383 12.5 39.1695 12.6005 39.0821 12.7619L39.5218 13ZM44.3877 13.9752L42.5616 12.6005L41.9602 13.3995L43.7862 14.7741L44.3877 13.9752ZM45 13.8747H44.087V14.8747H45V13.8747ZM45.5 15.6512V14.3747H44.5V15.6512H45.5ZM43.7992 17.8892C44.2771 17.7178 44.6945 17.3882 44.9929 17.0031C45.289 16.6211 45.5 16.1419 45.5 15.6512H44.5C44.5 15.8624 44.4029 16.132 44.2025 16.3906C44.0045 16.6461 43.7371 16.8491 43.4617 16.9478L43.7992 17.8892ZM42.4296 18.3802L43.7992 17.8892L43.4617 16.9478L42.0921 17.4388L42.4296 18.3802ZM42.7609 26.3622V17.9095H41.7609V26.3622H42.7609ZM42.7637 26.5091C42.7622 26.4542 42.7609 26.4077 42.7609 26.3622H41.7609C41.7609 26.4244 41.7626 26.4852 41.7641 26.5377L42.7637 26.5091ZM42.7632 26.4962L42.7632 26.496L41.7647 26.5507L41.7647 26.551L42.7632 26.4962ZM42.759 26.8877C42.7711 26.7475 42.7667 26.6117 42.7637 26.5093L41.7642 26.5379C41.7674 26.65 41.7691 26.7282 41.7627 26.8015L42.759 26.8877ZM42.7588 26.8902L42.7588 26.8899L41.7629 26.7993L41.7629 26.7997L42.7588 26.8902ZM41.9331 26.4673L41.933 26.4674L42.5887 27.2225L42.5888 27.2223L41.9331 26.4673ZM42.761 34.6017V26.8448H41.761V34.6017H42.761ZM44.5871 36.5655C44.5871 35.2396 43.5793 34.1017 42.261 34.1017V35.1017C42.9598 35.1017 43.5871 35.7221 43.5871 36.5655H44.5871ZM42.261 37.0655H44.0871V36.0655H42.261V37.0655ZM38.1088 32.6379C38.1088 35.0483 39.9341 37.0655 42.261 37.0655V36.0655C40.5537 36.0655 39.1088 34.5657 39.1088 32.6379H38.1088ZM38.1088 31.9425V32.6379H39.1088V31.9425H38.1088ZM38.8323 32.3898L38.8324 32.3897L38.3852 31.4953L38.3851 31.4953L38.8323 32.3898ZM35.8061 33.1378C36.8299 33.1378 37.8753 32.8697 38.8328 32.3895L38.3845 31.4956C37.5509 31.9137 36.658 32.1378 35.8061 32.1378V33.1378ZM35.3061 29.6922V32.6378H36.3061V29.6922H35.3061ZM35.8057 30.1922H35.8061V29.1922H35.8057V30.1922ZM36.3057 34.6017V29.6922H35.3057V34.6017H36.3057ZM38.1318 36.5654C38.1318 35.2392 37.1243 34.1017 35.8057 34.1017V35.1017C36.5048 35.1017 37.1318 35.7218 37.1318 36.5654H38.1318ZM35.8057 37.0654H37.6318V36.0654H35.8057V37.0654ZM32.8574 35.7551C33.6048 36.5589 34.6472 37.0654 35.8057 37.0654V36.0654C34.9482 36.0654 34.1644 35.6921 33.5897 35.0742L32.8574 35.7551ZM31.6535 32.6379C31.6535 33.8485 32.1105 34.9519 32.8574 35.7551L33.5897 35.0742C33.0145 34.4556 32.6535 33.5953 32.6535 32.6379L31.6535 32.6379ZM21.3458 33.1379H32.1535V32.1379H21.3458V33.1379ZM19.7635 34.8057C20.4803 34.2696 21.1382 33.651 21.726 32.9626L20.9656 32.3132C20.4248 32.9464 19.8209 33.514 19.1645 34.0049L19.7635 34.8057ZM20.1652 33.9053H19.464V34.9053H20.1652V33.9053ZM22.6739 36.5654C22.6739 35.1312 21.5844 33.9053 20.1652 33.9053V34.9053C20.9648 34.9053 21.6739 35.6138 21.6739 36.5654H22.6739ZM13.0435 37.0654H22.1739V36.0654H13.0435V37.0654ZM12.544 36.5421L12.544 36.5422L13.543 36.5887L13.543 36.5886L12.544 36.5421ZM3 37.0654H13.0435V36.0654H3V37.0654ZM7.5652 31.1559C4.73422 31.1559 2.5 33.6127 2.5 36.5654H3.5C3.5 34.0953 5.35372 32.1559 7.5652 32.1559V31.1559ZM13.0435 31.1559H7.5652V32.1559H13.0435V31.1559ZM12.5435 28.2194L12.5435 31.6559L13.5435 31.6559L13.5435 28.2194L12.5435 28.2194ZM22.1519 20.8467C16.9383 19.9992 12.5435 23.2669 12.5435 28.2194H13.5435C13.5435 23.9912 17.2747 21.067 21.9915 21.8338L22.1519 20.8467ZM32.2396 22.6092L22.1578 20.8477L21.9856 21.8328L32.0674 23.5943L32.2396 22.6092ZM34.4306 15.5598L31.685 22.9271L32.622 23.2764L35.3677 15.909L34.4306 15.5598ZM38.6573 12.5001C37.7741 12.5001 36.874 12.8571 36.1293 13.399C35.383 13.9419 34.7509 14.7005 34.4306 15.5598L35.3677 15.909C35.6079 15.2644 36.1016 14.6558 36.7176 14.2076C37.3352 13.7583 38.0339 13.5001 38.6573 13.5001V12.5001ZM39.5217 12.5001H38.6573V13.5001H39.5217V12.5001ZM39.0821 12.7619L39.0821 12.7619L39.9614 13.2382L39.9614 13.2381L39.0821 12.7619ZM42.2609 12.5H39.5218V13.5H42.2609V12.5Z" fill="#0E141F"/>
<defs>
<radialGradient id="paint0_radial_0_463" cx="0" cy="0" r="1" gradientUnits="userSpaceOnUse" gradientTransform="translate(40.7807 38) scale(5.45008 1.33146)">
<stop stop-color="#181818"/>
<stop offset="1" stop-color="#181818" stop-opacity="0.01"/>
</radialGradient>
<radialGradient id="paint1_radial_0_463" cx="0" cy="0" r="1" gradientUnits="userSpaceOnUse" gradientTransform="translate(4.86248 42) scale(6.01135 1.3314)">
<stop stop-color="#181818"/>
<stop offset="1" stop-color="#181818" stop-opacity="0.01"/>
</radialGradient>
<linearGradient id="paint2_linear_0_463" x1="43.3618" y1="40" x2="43.3618" y2="34.9996" gradientUnits="userSpaceOnUse">
<stop stop-color="#181818" stop-opacity="0.01"/>
<stop offset="0.5" stop-color="#181818"/>
<stop offset="1" stop-color="#181818" stop-opacity="0.01"/>
</linearGradient>
<linearGradient id="paint3_linear_0_463" x1="-1.97861" y1="12.8705" x2="-1.97861" y2="36.695" gradientUnits="userSpaceOnUse">
<stop stop-color="white"/>
<stop offset="0.0631645" stop-color="white" stop-opacity="0.235294"/>
<stop offset="0.950563" stop-color="white" stop-opacity="0.156863"/>
<stop offset="1" stop-color="white" stop-opacity="0.392157"/>
</linearGradient>
</defs>
</svg>
