<svg width="16" height="16" viewBox="0 0 16 16" fill="none" xmlns="http://www.w3.org/2000/svg">
<path d="M12.8696 9.80836V10.8477C12.8696 11.6041 13.4147 12.2173 14.087 12.2173H14.6957C14.6957 11.8391 14.4232 11.5325 14.087 11.5325V8.8277C13.7342 9.15229 13.0885 9.59749 12.8696 9.80836Z" fill="#6B8F9C"/>
<path d="M2.52174 10.5053C1.68132 10.5053 1 11.2718 1 12.2172H4.34783L4.90283 11.3314L4.34783 10.5053H2.52174Z" fill="#325763"/>
<path d="M11.9353 9.82055V10.8477C12.2479 10.8477 12.571 10.7619 12.8695 10.6053C13.0324 10.5198 13.1882 10.4135 13.3307 10.2879C13.767 9.90314 14.0413 9.37836 14.0869 8.82761C14.0915 8.77175 14.0869 8.71567 14.0869 8.65941V5.71194L12.0054 5.75464C12.0053 5.75464 11.9353 9.0585 11.9353 9.82055Z" fill="#FAE8AC"/>
<path d="M14.6957 4.47935L14.087 4H13.174L12.547 5.00484L13.174 6.05432C13.174 6.05432 14.2924 5.63489 14.5435 5.54073C14.7946 5.44657 15 5.16926 15 4.92446C15 4.67967 15 4.47935 15 4.47935H14.6957Z" fill="#F6D76F"/>
<path d="M12.8857 4.00003C12.3835 4.00003 11.8198 4.42909 11.633 4.95347L10.7178 7.52248V10.8477C10.7178 11.2257 10.8541 11.5681 11.0745 11.816C11.2948 12.0639 11.5992 12.2173 11.9352 12.2173H12.5439C12.5439 11.8389 12.2715 11.5325 11.9352 11.5325V9.82058C12.0932 9.82058 12.2593 9.78 12.4166 9.70781C12.4183 9.70707 12.4199 9.70639 12.4215 9.70565C12.8278 9.51693 13.1738 9.11818 13.1738 8.65956V5.02376L12.901 4.51279L13.1738 4.00003H12.8857V4.00003Z" fill="#325763"/>
<path d="M12.7478 4.51189C12.7478 4.7841 12.9359 5.00595 13.1739 5.02376V4.00003C12.9359 4.01784 12.7478 4.23969 12.7478 4.51189Z" fill="#05232E"/>
<path d="M4.34778 9.30697V12.2172H7.39125C7.39125 11.8013 7.09148 11.464 6.72168 11.464H6.48795C6.71682 11.2849 6.92712 11.0781 7.11521 10.8477H10.7178L11.5055 9.01166L10.7178 7.52246L7.35718 6.90822C5.70212 6.62675 4.34778 7.70631 4.34778 9.30697Z" fill="#6B8F9C"/>
<path opacity="0.35" d="M14.6957 4.47935L14.3864 4.87217C14.4745 4.9416 14.5835 4.97935 14.6957 4.97935V4.47935ZM14.087 4L14.3963 3.60718C14.3082 3.53775 14.1992 3.5 14.087 3.5V4ZM15 4.47935H15.5C15.5 4.20321 15.2762 3.97935 15 3.97935V4.47935ZM14.5435 5.54073L14.368 5.07256L14.368 5.07257L14.5435 5.54073ZM14.087 5.71194L13.9114 5.24378C13.7162 5.31696 13.587 5.50352 13.587 5.71194H14.087ZM14.088 8.71559L14.5882 8.71559L14.5878 8.70186L14.088 8.71559ZM14.088 8.71572L13.5878 8.71572L13.5882 8.72944L14.088 8.71572ZM14.087 8.82761L13.5887 8.78636L13.5886 8.78774L14.087 8.82761ZM14.087 8.82769L13.5885 8.78782C13.572 8.99455 13.6848 9.19003 13.8721 9.27916C14.0593 9.36829 14.2822 9.33257 14.4322 9.18937L14.087 8.82769ZM14.087 8.82768H14.587C14.587 8.62757 14.4676 8.44672 14.2837 8.368C14.0997 8.28927 13.8865 8.32783 13.7417 8.466L14.087 8.82768ZM14.087 11.5325H13.587C13.587 11.8086 13.8108 12.0325 14.087 12.0325V11.5325ZM14.6957 12.2173V12.7173C14.9718 12.7173 15.1957 12.4934 15.1957 12.2173H14.6957ZM12.8696 10.8477L13.3696 10.8477L13.3696 10.8477L12.8696 10.8477ZM12.8696 10.6053L13.3696 10.6053C13.3696 10.4302 13.278 10.2679 13.1283 10.1774C12.9785 10.0868 12.7923 10.0812 12.6373 10.1625L12.8696 10.6053ZM11.9354 10.8477H11.4354C11.4354 11.1238 11.6592 11.3477 11.9354 11.3477V10.8477ZM11.9354 9.82058H12.4354C12.4354 9.54444 12.2115 9.32058 11.9354 9.32058V9.82058ZM11.9352 9.82058V9.32058C11.659 9.32058 11.4352 9.54444 11.4352 9.82058H11.9352ZM11.9352 11.5325H11.4352C11.4352 11.8086 11.659 12.0325 11.9352 12.0325V11.5325ZM12.5439 12.2173V12.7173C12.82 12.7173 13.0439 12.4934 13.0439 12.2173H12.5439ZM11.0745 11.816L10.7008 12.1482L10.7008 12.1482L11.0745 11.816ZM10.7178 10.8477H11.2178C11.2178 10.5716 10.9939 10.3477 10.7178 10.3477V10.8477ZM7.11521 10.8477V10.3477C6.96505 10.3477 6.82283 10.4152 6.72788 10.5315L7.11521 10.8477ZM6.48795 11.464L6.17985 11.0702C6.01183 11.2017 5.94572 11.4253 6.01524 11.627C6.08477 11.8286 6.27461 11.964 6.48795 11.964V11.464ZM7.39125 12.2173V12.7173C7.66739 12.7173 7.89125 12.4934 7.89125 12.2173H7.39125ZM4.34778 12.2173H3.84778C3.84778 12.4934 4.07164 12.7173 4.34778 12.7173V12.2173ZM4.34778 12.2172H4.84778C4.84778 11.9411 4.62392 11.7172 4.34778 11.7172V12.2172ZM1 12.2172H0.5C0.5 12.4934 0.723858 12.7172 1 12.7172V12.2172ZM4.34778 10.5053V11.0053C4.62392 11.0053 4.84778 10.7815 4.84778 10.5053H4.34778ZM7.35718 6.90823L7.44708 6.41634L7.44101 6.41531L7.35718 6.90823ZM10.7178 7.52247L10.6279 8.01432C10.869 8.05839 11.1065 7.92117 11.1888 7.69027L10.7178 7.52247ZM11.633 4.95347L12.104 5.12127L12.104 5.12127L11.633 4.95347ZM13.1738 4.00003L13.6158 4.23389C13.6978 4.07891 13.6926 3.8923 13.6022 3.74209C13.5117 3.59188 13.3492 3.50003 13.1738 3.50003V4.00003ZM13.1738 4.00004L12.7319 3.76618C12.6468 3.92708 12.6558 4.12155 12.7555 4.27387C12.8552 4.42619 13.0298 4.51228 13.2113 4.49863L13.1738 4.00004ZM13.1739 4.00003L13.2113 4.49863C13.3699 4.48675 13.5135 4.40008 13.5978 4.26522L13.1739 4.00003ZM13.174 4V3.5C13.0016 3.5 12.8415 3.58873 12.7501 3.73482L13.174 4ZM15.005 4.08653L14.3963 3.60718L13.7777 4.39282L14.3864 4.87217L15.005 4.08653ZM15 3.97935H14.6957V4.97935H15V3.97935ZM15.5 4.92446V4.47935H14.5V4.92446H15.5ZM14.7191 6.0089C14.9488 5.92277 15.1371 5.76306 15.2677 5.5867C15.3967 5.41254 15.5 5.18014 15.5 4.92446H14.5C14.5 4.91656 14.5014 4.92028 14.4958 4.93542C14.4902 4.9502 14.4801 4.96998 14.4642 4.99147C14.4293 5.03851 14.3894 5.06453 14.368 5.07256L14.7191 6.0089ZM14.2625 6.18011L14.7191 6.00889L14.368 5.07257L13.9114 5.24378L14.2625 6.18011ZM14.587 8.65941V5.71194H13.587V8.65941H14.587ZM14.5878 8.70186C14.5873 8.682 14.587 8.67014 14.587 8.65941H13.587C13.587 8.68617 13.5877 8.71177 13.5882 8.72933L14.5878 8.70186ZM14.588 8.71563V8.71559H13.588V8.71563H14.588ZM14.588 8.71567V8.71563H13.588V8.71567H14.588ZM14.588 8.71569V8.71567H13.588V8.71569H14.588ZM14.588 8.7157V8.71569H13.588V8.7157H14.588ZM14.588 8.71571V8.7157H13.588V8.71571H14.588ZM14.588 8.71572V8.71571H13.588V8.71572H14.588ZM14.5853 8.86886C14.591 8.79963 14.5887 8.73475 14.5878 8.702L13.5882 8.72944C13.5893 8.77147 13.5891 8.78118 13.5887 8.78636L14.5853 8.86886ZM14.5854 8.86757L14.5854 8.86748L13.5886 8.78774L13.5885 8.78782L14.5854 8.86757ZM13.7417 8.466L13.7417 8.46601L14.4322 9.18937L14.4322 9.18936L13.7417 8.466ZM14.587 11.5325V8.82768H13.587V11.5325H14.587ZM15.1957 12.2173C15.1957 11.6199 14.753 11.0325 14.087 11.0325V12.0325C14.0965 12.0325 14.1175 12.0357 14.1437 12.0652C14.1707 12.0957 14.1957 12.148 14.1957 12.2173H15.1957ZM14.087 12.7173H14.6957V11.7173H14.087V12.7173ZM12.3696 10.8477C12.3696 11.8232 13.0847 12.7173 14.087 12.7173V11.7173C13.7445 11.7173 13.3696 11.3849 13.3696 10.8477H12.3696ZM12.3696 10.6053L12.3696 10.8477L13.3696 10.8477L13.3696 10.6053L12.3696 10.6053ZM11.9354 11.3477C12.3381 11.3477 12.7403 11.2377 13.1018 11.048L12.6373 10.1625C12.4018 10.286 12.1579 10.3477 11.9354 10.3477V11.3477ZM11.4354 9.82058V10.8477H12.4354V9.82058H11.4354ZM11.9352 10.3206H11.9354V9.32058H11.9352V10.3206ZM12.4352 11.5325V9.82058H11.4352V11.5325H12.4352ZM13.0439 12.2173C13.0439 11.6198 12.6013 11.0325 11.9352 11.0325V12.0325C11.9449 12.0325 11.9658 12.0358 11.9919 12.0652C12.0189 12.0955 12.0439 12.1478 12.0439 12.2173H13.0439ZM11.9352 12.7173H12.5439V11.7173H11.9352V12.7173ZM10.7008 12.1482C11.0049 12.4903 11.4405 12.7173 11.9352 12.7173V11.7173C11.7579 11.7173 11.5847 11.6374 11.4482 11.4838L10.7008 12.1482ZM10.2178 10.8477C10.2178 11.3456 10.3974 11.8069 10.7008 12.1482L11.4482 11.4838C11.3108 11.3293 11.2178 11.1058 11.2178 10.8477H10.2178ZM10.2178 10.8477V10.8477H11.2178V10.8477H10.2178ZM7.11521 11.3477H10.7178V10.3477H7.11521V11.3477ZM6.79604 11.8578C7.05498 11.6552 7.2917 11.4222 7.50255 11.1639L6.72788 10.5315C6.56253 10.7341 6.37865 10.9147 6.17985 11.0702L6.79604 11.8578ZM6.72168 10.964H6.48795V11.964H6.72168V10.964ZM7.89125 12.2173C7.89125 11.5821 7.42136 10.964 6.72168 10.964V11.964C6.74804 11.964 6.78418 11.9749 6.82143 12.0168C6.8595 12.0596 6.89125 12.1291 6.89125 12.2173H7.89125ZM4.34778 12.7173H7.39125V11.7173H4.34778V12.7173ZM3.84778 12.2172V12.2173H4.84778V12.2172H3.84778ZM1 12.7172H4.34778V11.7172H1V12.7172ZM2.52174 10.0053C1.35146 10.0053 0.5 11.0526 0.5 12.2172H1.5C1.5 11.491 2.01119 11.0053 2.52174 11.0053V10.0053ZM4.34778 10.0053H2.52174V11.0053H4.34778V10.0053ZM3.84778 9.30698V10.5053H4.84778V9.30698H3.84778ZM7.44101 6.41531C5.50976 6.08688 3.84778 7.36789 3.84778 9.30698H4.84778C4.84778 8.04477 5.89447 7.16666 7.27335 7.40116L7.44101 6.41531ZM10.8077 7.03062L7.44708 6.41638L7.26728 7.40009L10.6279 8.01432L10.8077 7.03062ZM11.162 4.78567L10.2468 7.35467L11.1888 7.69027L12.104 5.12127L11.162 4.78567ZM12.8857 3.50003C12.4984 3.50003 12.1283 3.66149 11.8383 3.88224C11.5458 4.10483 11.2926 4.41907 11.162 4.78567L12.104 5.12127C12.1602 4.96348 12.2823 4.80101 12.4439 4.67797C12.608 4.5531 12.7708 4.50003 12.8857 4.50003V3.50003ZM13.1738 3.50003H12.8857V4.50003H13.1738V3.50003ZM13.6158 4.2339L13.6158 4.23389L12.7319 3.76617L12.7319 3.76618L13.6158 4.2339ZM13.1366 3.50143C13.1365 3.50144 13.1364 3.50144 13.1364 3.50145L13.2113 4.49863L13.2113 4.49863L13.1366 3.50143ZM12.7501 3.73482L12.7501 3.73485L13.5978 4.26522L13.5978 4.26518L12.7501 3.73482ZM14.087 3.5H13.174V4.5H14.087V3.5Z" fill="url(#paint0_linear_0_579)"/>
<path opacity="0.5" d="M14.6957 4.47935L14.3864 4.87217C14.4745 4.9416 14.5835 4.97935 14.6957 4.97935V4.47935ZM14.087 4L14.3963 3.60718C14.3082 3.53775 14.1992 3.5 14.087 3.5V4ZM15 4.47935H15.5C15.5 4.20321 15.2762 3.97935 15 3.97935V4.47935ZM14.5435 5.54073L14.368 5.07256L14.368 5.07257L14.5435 5.54073ZM14.087 5.71194L13.9114 5.24378C13.7162 5.31696 13.587 5.50352 13.587 5.71194H14.087ZM14.088 8.71559L14.5882 8.71559L14.5878 8.70186L14.088 8.71559ZM14.088 8.71572L13.5878 8.71572L13.5882 8.72944L14.088 8.71572ZM14.087 8.82761L13.5887 8.78636L13.5886 8.78774L14.087 8.82761ZM14.087 8.82769L13.5885 8.78782C13.572 8.99455 13.6848 9.19003 13.8721 9.27916C14.0593 9.36829 14.2822 9.33257 14.4322 9.18937L14.087 8.82769ZM14.087 8.82768H14.587C14.587 8.62757 14.4676 8.44672 14.2837 8.368C14.0997 8.28927 13.8865 8.32783 13.7417 8.466L14.087 8.82768ZM14.087 11.5325H13.587C13.587 11.8086 13.8108 12.0325 14.087 12.0325V11.5325ZM14.6957 12.2173V12.7173C14.9718 12.7173 15.1957 12.4934 15.1957 12.2173H14.6957ZM12.8696 10.8477L13.3696 10.8477L13.3696 10.8477L12.8696 10.8477ZM12.8696 10.6053L13.3696 10.6053C13.3696 10.4302 13.278 10.2679 13.1283 10.1774C12.9785 10.0868 12.7923 10.0812 12.6373 10.1625L12.8696 10.6053ZM11.9354 10.8477H11.4354C11.4354 11.1238 11.6592 11.3477 11.9354 11.3477V10.8477ZM11.9354 9.82058H12.4354C12.4354 9.54444 12.2115 9.32058 11.9354 9.32058V9.82058ZM11.9352 9.82058V9.32058C11.659 9.32058 11.4352 9.54444 11.4352 9.82058H11.9352ZM11.9352 11.5325H11.4352C11.4352 11.8086 11.659 12.0325 11.9352 12.0325V11.5325ZM12.5439 12.2173V12.7173C12.82 12.7173 13.0439 12.4934 13.0439 12.2173H12.5439ZM11.0745 11.816L10.7008 12.1482L10.7008 12.1482L11.0745 11.816ZM10.7178 10.8477H11.2178C11.2178 10.5716 10.9939 10.3477 10.7178 10.3477V10.8477ZM7.11521 10.8477V10.3477C6.96505 10.3477 6.82283 10.4152 6.72788 10.5315L7.11521 10.8477ZM6.48795 11.464L6.17985 11.0702C6.01183 11.2017 5.94572 11.4253 6.01524 11.627C6.08477 11.8286 6.27461 11.964 6.48795 11.964V11.464ZM7.39125 12.2173V12.7173C7.66739 12.7173 7.89125 12.4934 7.89125 12.2173H7.39125ZM4.34778 12.2173H3.84778C3.84778 12.4934 4.07164 12.7173 4.34778 12.7173V12.2173ZM4.34778 12.2172H4.84778C4.84778 11.9411 4.62392 11.7172 4.34778 11.7172V12.2172ZM1 12.2172H0.5C0.5 12.4934 0.723858 12.7172 1 12.7172V12.2172ZM4.34778 10.5053V11.0053C4.62392 11.0053 4.84778 10.7815 4.84778 10.5053H4.34778ZM7.35718 6.90823L7.44708 6.41634L7.44101 6.41531L7.35718 6.90823ZM10.7178 7.52247L10.6279 8.01432C10.869 8.05839 11.1065 7.92117 11.1888 7.69027L10.7178 7.52247ZM11.633 4.95347L12.104 5.12127L12.104 5.12127L11.633 4.95347ZM13.1738 4.00003L13.6158 4.23389C13.6978 4.07891 13.6926 3.8923 13.6022 3.74209C13.5117 3.59188 13.3492 3.50003 13.1738 3.50003V4.00003ZM13.1738 4.00004L12.7319 3.76618C12.6468 3.92708 12.6558 4.12155 12.7555 4.27387C12.8552 4.42619 13.0298 4.51228 13.2113 4.49863L13.1738 4.00004ZM13.1739 4.00003L13.2113 4.49863C13.3699 4.48675 13.5135 4.40008 13.5978 4.26522L13.1739 4.00003ZM13.174 4V3.5C13.0016 3.5 12.8415 3.58873 12.7501 3.73482L13.174 4ZM15.005 4.08653L14.3963 3.60718L13.7777 4.39282L14.3864 4.87217L15.005 4.08653ZM15 3.97935H14.6957V4.97935H15V3.97935ZM15.5 4.92446V4.47935H14.5V4.92446H15.5ZM14.7191 6.0089C14.9488 5.92277 15.1371 5.76306 15.2677 5.5867C15.3967 5.41254 15.5 5.18014 15.5 4.92446H14.5C14.5 4.91656 14.5014 4.92028 14.4958 4.93542C14.4902 4.9502 14.4801 4.96998 14.4642 4.99147C14.4293 5.03851 14.3894 5.06453 14.368 5.07256L14.7191 6.0089ZM14.2625 6.18011L14.7191 6.00889L14.368 5.07257L13.9114 5.24378L14.2625 6.18011ZM14.587 8.65941V5.71194H13.587V8.65941H14.587ZM14.5878 8.70186C14.5873 8.682 14.587 8.67014 14.587 8.65941H13.587C13.587 8.68617 13.5877 8.71177 13.5882 8.72933L14.5878 8.70186ZM14.588 8.71563V8.71559H13.588V8.71563H14.588ZM14.588 8.71567V8.71563H13.588V8.71567H14.588ZM14.588 8.71569V8.71567H13.588V8.71569H14.588ZM14.588 8.7157V8.71569H13.588V8.7157H14.588ZM14.588 8.71571V8.7157H13.588V8.71571H14.588ZM14.588 8.71572V8.71571H13.588V8.71572H14.588ZM14.5853 8.86886C14.591 8.79963 14.5887 8.73475 14.5878 8.702L13.5882 8.72944C13.5893 8.77147 13.5891 8.78118 13.5887 8.78636L14.5853 8.86886ZM14.5854 8.86757L14.5854 8.86748L13.5886 8.78774L13.5885 8.78782L14.5854 8.86757ZM13.7417 8.466L13.7417 8.46601L14.4322 9.18937L14.4322 9.18936L13.7417 8.466ZM14.587 11.5325V8.82768H13.587V11.5325H14.587ZM15.1957 12.2173C15.1957 11.6199 14.753 11.0325 14.087 11.0325V12.0325C14.0965 12.0325 14.1175 12.0357 14.1437 12.0652C14.1707 12.0957 14.1957 12.148 14.1957 12.2173H15.1957ZM14.087 12.7173H14.6957V11.7173H14.087V12.7173ZM12.3696 10.8477C12.3696 11.8232 13.0847 12.7173 14.087 12.7173V11.7173C13.7445 11.7173 13.3696 11.3849 13.3696 10.8477H12.3696ZM12.3696 10.6053L12.3696 10.8477L13.3696 10.8477L13.3696 10.6053L12.3696 10.6053ZM11.9354 11.3477C12.3381 11.3477 12.7403 11.2377 13.1018 11.048L12.6373 10.1625C12.4018 10.286 12.1579 10.3477 11.9354 10.3477V11.3477ZM11.4354 9.82058V10.8477H12.4354V9.82058H11.4354ZM11.9352 10.3206H11.9354V9.32058H11.9352V10.3206ZM12.4352 11.5325V9.82058H11.4352V11.5325H12.4352ZM13.0439 12.2173C13.0439 11.6198 12.6013 11.0325 11.9352 11.0325V12.0325C11.9449 12.0325 11.9658 12.0358 11.9919 12.0652C12.0189 12.0955 12.0439 12.1478 12.0439 12.2173H13.0439ZM11.9352 12.7173H12.5439V11.7173H11.9352V12.7173ZM10.7008 12.1482C11.0049 12.4903 11.4405 12.7173 11.9352 12.7173V11.7173C11.7579 11.7173 11.5847 11.6374 11.4482 11.4838L10.7008 12.1482ZM10.2178 10.8477C10.2178 11.3456 10.3974 11.8069 10.7008 12.1482L11.4482 11.4838C11.3108 11.3293 11.2178 11.1058 11.2178 10.8477H10.2178ZM10.2178 10.8477V10.8477H11.2178V10.8477H10.2178ZM7.11521 11.3477H10.7178V10.3477H7.11521V11.3477ZM6.79604 11.8578C7.05498 11.6552 7.2917 11.4222 7.50255 11.1639L6.72788 10.5315C6.56253 10.7341 6.37865 10.9147 6.17985 11.0702L6.79604 11.8578ZM6.72168 10.964H6.48795V11.964H6.72168V10.964ZM7.89125 12.2173C7.89125 11.5821 7.42136 10.964 6.72168 10.964V11.964C6.74804 11.964 6.78418 11.9749 6.82143 12.0168C6.8595 12.0596 6.89125 12.1291 6.89125 12.2173H7.89125ZM4.34778 12.7173H7.39125V11.7173H4.34778V12.7173ZM3.84778 12.2172V12.2173H4.84778V12.2172H3.84778ZM1 12.7172H4.34778V11.7172H1V12.7172ZM2.52174 10.0053C1.35146 10.0053 0.5 11.0526 0.5 12.2172H1.5C1.5 11.491 2.01119 11.0053 2.52174 11.0053V10.0053ZM4.34778 10.0053H2.52174V11.0053H4.34778V10.0053ZM3.84778 9.30698V10.5053H4.84778V9.30698H3.84778ZM7.44101 6.41531C5.50976 6.08688 3.84778 7.36789 3.84778 9.30698H4.84778C4.84778 8.04477 5.89447 7.16666 7.27335 7.40116L7.44101 6.41531ZM10.8077 7.03062L7.44708 6.41638L7.26728 7.40009L10.6279 8.01432L10.8077 7.03062ZM11.162 4.78567L10.2468 7.35467L11.1888 7.69027L12.104 5.12127L11.162 4.78567ZM12.8857 3.50003C12.4984 3.50003 12.1283 3.66149 11.8383 3.88224C11.5458 4.10483 11.2926 4.41907 11.162 4.78567L12.104 5.12127C12.1602 4.96348 12.2823 4.80101 12.4439 4.67797C12.608 4.5531 12.7708 4.50003 12.8857 4.50003V3.50003ZM13.1738 3.50003H12.8857V4.50003H13.1738V3.50003ZM13.6158 4.2339L13.6158 4.23389L12.7319 3.76617L12.7319 3.76618L13.6158 4.2339ZM13.1366 3.50143C13.1365 3.50144 13.1364 3.50144 13.1364 3.50145L13.2113 4.49863L13.2113 4.49863L13.1366 3.50143ZM12.7501 3.73482L12.7501 3.73485L13.5978 4.26522L13.5978 4.26518L12.7501 3.73482ZM14.087 3.5H13.174V4.5H14.087V3.5Z" fill="#0E141F"/>
<defs>
<linearGradient id="paint0_linear_0_579" x1="-0.517484" y1="4.37351" x2="-0.517484" y2="11.8438" gradientUnits="userSpaceOnUse">
<stop stop-color="white"/>
<stop stop-color="white" stop-opacity="0.235294"/>
<stop offset="1" stop-color="white" stop-opacity="0.156863"/>
<stop offset="1" stop-color="white" stop-opacity="0.392157"/>
</linearGradient>
</defs>
</svg>
