<svg width="128" height="128" viewBox="0 0 128 128" fill="none" xmlns="http://www.w3.org/2000/svg">
<g opacity="0.4">
<rect x="109" y="91" width="16" height="6" fill="url(#paint0_radial_0_377)"/>
<rect x="19" y="97" width="16" height="6" transform="rotate(180 19 97)" fill="url(#paint1_radial_0_377)"/>
<rect x="19" y="91" width="90" height="6" fill="url(#paint2_linear_0_377)"/>
</g>
<path d="M102.675 76.182V83.5514C102.675 88.914 107.022 93.2616 112.385 93.2616H117.24C117.24 90.5801 115.066 88.4065 112.385 88.4065V69.2289C109.571 71.5303 104.421 74.6869 102.675 76.182Z" fill="#6B8F9C"/>
<path d="M20.1377 81.1237C13.4344 81.1237 8 86.5581 8 93.2614H34.7031L39.1299 86.9805L34.7031 81.1237H20.1377Z" fill="#325763"/>
<path d="M95.2231 76.2686V83.5511C97.7167 83.5511 100.294 82.9426 102.675 81.8323C103.974 81.2262 105.217 80.4729 106.353 79.5819C109.833 76.8542 112.021 73.1334 112.385 69.2285C112.422 68.8324 112.385 68.4348 112.385 68.0359V47.138L95.7819 47.4407C95.7817 47.4407 95.2231 70.8656 95.2231 76.2686Z" fill="#FAE8AC"/>
<path d="M117.24 38.3987L112.385 35H105.102L100.101 42.1245L105.102 49.5654C105.102 49.5654 114.023 46.5916 116.026 45.924C118.029 45.2564 119.667 43.2902 119.667 41.5546C119.667 39.8189 119.667 38.3987 119.667 38.3987H117.24Z" fill="#F6D76F"/>
<path d="M102.804 35.0002C98.7983 35.0002 94.3019 38.0423 92.8119 41.7602L85.5118 59.9749V83.5513C85.5118 86.2314 86.5993 88.6588 88.357 90.4165C90.1144 92.1739 92.5421 93.2616 95.2221 93.2616H100.077C100.077 90.5792 97.9045 88.4065 95.2221 88.4065V76.2687C96.4829 76.2687 97.8073 75.9811 99.0622 75.4692C99.0753 75.464 99.0886 75.4592 99.1015 75.4539C102.342 74.1159 105.102 71.2886 105.102 68.037V42.2586L102.925 38.6357L105.102 35.0002H102.804V35.0002Z" fill="#325763"/>
<path d="M101.704 38.6294C101.704 40.5594 103.204 42.1323 105.102 42.2586V35.0002C103.204 35.1265 101.704 36.6994 101.704 38.6294Z" fill="#05232E"/>
<path d="M34.7031 72.6274V93.2616H58.9786C58.9786 90.3122 56.5875 87.921 53.638 87.921H51.7736C53.5991 86.6514 55.2765 85.1851 56.7769 83.5514H85.5118L91.7946 70.5336L85.5118 59.9749L58.7068 55.6199C45.5056 53.6243 34.7031 61.2785 34.7031 72.6274Z" fill="#6B8F9C"/>
<g opacity="0.5">
<mask id="path-11-inside-1_0_377" fill="white">
<path fill-rule="evenodd" clip-rule="evenodd" d="M112.385 35L117.24 38.3987H119.667V41.5546C119.667 43.2902 118.029 45.2564 116.026 45.924L112.384 47.138L112.385 47.138V68.0359C112.385 68.1687 112.389 68.3014 112.393 68.434V68.4343V68.4345V68.4348V68.4349V68.435V68.4351V68.4352C112.401 68.7003 112.409 68.9647 112.385 69.2285L112.385 69.2289V88.4065C115.066 88.4065 117.24 90.5801 117.24 93.2616H112.385C107.022 93.2616 102.675 88.914 102.675 83.5514V81.8323C100.294 82.9426 97.7167 83.5511 95.2232 83.5511V76.2687H95.2221V88.4065C97.9045 88.4065 100.077 90.5792 100.077 93.2616H95.2221C92.5421 93.2616 90.1144 92.1739 88.357 90.4165C86.5993 88.6588 85.5118 86.2313 85.5118 83.5514H56.7768C55.2765 85.1851 53.5991 86.6514 51.7736 87.921H53.6379C56.5875 87.921 58.9786 90.3122 58.9786 93.2616H34.7031L34.7031 93.2614H8C8 86.5581 13.4344 81.1237 20.1377 81.1237H34.7031L34.7031 72.6274C34.7031 61.2785 45.5056 53.6243 58.7068 55.6199L85.5118 59.9749L85.5118 59.975V59.9749L92.8119 41.7602C94.302 38.0423 98.7983 35.0002 102.804 35.0002H105.102L105.102 35H112.385Z"/>
</mask>
<path d="M117.24 38.3987L116.666 39.2179C116.835 39.3355 117.035 39.3987 117.24 39.3987V38.3987ZM112.385 35L112.958 34.1808C112.79 34.0631 112.59 34 112.385 34V35ZM119.667 38.3987H120.667C120.667 37.8464 120.22 37.3987 119.667 37.3987V38.3987ZM116.026 45.924L115.71 44.9753L115.71 44.9753L116.026 45.924ZM112.384 47.138L112.068 46.1893C111.6 46.3455 111.315 46.8202 111.399 47.307C111.482 47.7937 111.908 48.1466 112.402 48.1378L112.384 47.138ZM112.385 47.138H113.385C113.385 46.8696 113.277 46.6126 113.086 46.4246C112.894 46.2365 112.635 46.1333 112.367 46.1381L112.385 47.138ZM112.393 68.434H113.393C113.393 68.4237 113.393 68.4134 113.393 68.4031L112.393 68.434ZM112.393 68.4352H111.393C111.393 68.4455 111.393 68.4558 111.394 68.4661L112.393 68.4352ZM112.385 69.2285L111.389 69.1358C111.387 69.1609 111.385 69.186 111.385 69.2112L112.385 69.2285ZM112.385 69.2289L111.385 69.2117C111.385 69.2174 111.385 69.2232 111.385 69.2289H112.385ZM112.385 88.4065H111.385C111.385 88.9588 111.833 89.4065 112.385 89.4065V88.4065ZM117.24 93.2616V94.2616C117.792 94.2616 118.24 93.8139 118.24 93.2616H117.24ZM102.675 81.8323H103.675C103.675 81.4906 103.5 81.1725 103.212 80.9889C102.924 80.8053 102.562 80.7816 102.252 80.926L102.675 81.8323ZM95.2232 83.5511H94.2232C94.2232 84.1034 94.6709 84.5511 95.2232 84.5511V83.5511ZM95.2232 76.2687H96.2232C96.2232 75.7165 95.7755 75.2687 95.2232 75.2687V76.2687ZM95.2221 76.2687V75.2687C94.6698 75.2687 94.2221 75.7165 94.2221 76.2687H95.2221ZM95.2221 88.4065H94.2221C94.2221 88.9587 94.6698 89.4065 95.2221 89.4065V88.4065ZM100.077 93.2616V94.2616C100.63 94.2616 101.077 93.8139 101.077 93.2616H100.077ZM88.357 90.4165L89.0641 89.7094L89.0641 89.7094L88.357 90.4165ZM85.5118 83.5514L86.5118 83.5513C86.5118 82.9991 86.0641 82.5514 85.5118 82.5514V83.5514ZM56.7768 83.5514V82.5514C56.4968 82.5514 56.2297 82.6687 56.0403 82.875L56.7768 83.5514ZM51.7736 87.921L51.2026 87.1C50.8438 87.3495 50.6887 87.8032 50.8194 88.2202C50.9502 88.6372 51.3366 88.921 51.7736 88.921V87.921ZM58.9786 93.2616V94.2616C59.5308 94.2616 59.9786 93.8139 59.9786 93.2616H58.9786ZM34.7031 93.2616L33.7101 93.1434C33.6763 93.4272 33.7656 93.7119 33.9554 93.9256C34.1451 94.1393 34.4173 94.2616 34.7031 94.2616V93.2616ZM34.7031 93.2614L35.6961 93.3796C35.7299 93.0958 35.6406 92.8111 35.4509 92.5974C35.2611 92.3837 34.9889 92.2614 34.7031 92.2614V93.2614ZM8 93.2614H7C7 93.8137 7.44772 94.2614 8 94.2614V93.2614ZM34.7031 81.1237V82.1237C34.9683 82.1237 35.2227 82.0183 35.4102 81.8308C35.5978 81.6432 35.7031 81.3889 35.7031 81.1237L34.7031 81.1237ZM34.7031 72.6274L33.7031 72.6274L33.7031 72.6274L34.7031 72.6274ZM58.7068 55.6199L58.8672 54.6328L58.8563 54.6311L58.7068 55.6199ZM85.5118 59.9749L86.373 59.4667C86.2221 59.2109 85.9653 59.0355 85.6721 58.9879L85.5118 59.9749ZM85.5118 59.975L84.6506 60.4833C84.8798 60.8715 85.3404 61.0585 85.7753 60.9397C86.2102 60.8209 86.5118 60.4259 86.5118 59.975H85.5118ZM85.5118 59.9749L84.5836 59.6029C84.5362 59.7212 84.5118 59.8474 84.5118 59.9749H85.5118ZM92.8119 41.7602L93.7401 42.1322L93.7401 42.1322L92.8119 41.7602ZM105.102 35.0002V36.0002C105.413 36.0002 105.707 35.8553 105.896 35.6083L105.102 35.0002ZM105.102 35V34C104.791 34 104.498 34.1449 104.308 34.3919L105.102 35ZM117.813 37.5794L112.958 34.1808L111.811 35.8192L116.666 39.2179L117.813 37.5794ZM119.667 37.3987H117.24V39.3987H119.667V37.3987ZM120.667 41.5546V38.3987H118.667V41.5546H120.667ZM116.342 46.8727C117.537 46.4746 118.599 45.7008 119.366 44.78C120.126 43.8682 120.667 42.724 120.667 41.5546H118.667C118.667 42.1208 118.39 42.8275 117.83 43.4996C117.277 44.1627 116.518 44.7058 115.71 44.9753L116.342 46.8727ZM112.701 48.0866L116.342 46.8727L115.71 44.9753L112.068 46.1893L112.701 48.0866ZM112.367 46.1381L112.367 46.1381L112.402 48.1378L112.403 48.1378L112.367 46.1381ZM113.385 68.0359V47.138H111.385V68.0359H113.385ZM113.393 68.4031C113.388 68.2679 113.385 68.1507 113.385 68.0359H111.385C111.385 68.1868 111.39 68.3349 111.394 68.4649L113.393 68.4031ZM113.393 68.4343V68.434H111.393V68.4343H113.393ZM113.393 68.4345V68.4343H111.393V68.4345H113.393ZM113.393 68.4348V68.4345H111.393V68.4348H113.393ZM113.393 68.4349V68.4348H111.393V68.4349H113.393ZM113.393 68.435V68.4349H111.393V68.435H113.393ZM113.393 68.4351V68.435H111.393V68.4351H113.393ZM113.393 68.4352V68.4351H111.393V68.4352H113.393ZM113.381 69.3212C113.412 68.9855 113.4 68.659 113.393 68.4043L111.394 68.4661C111.402 68.7415 111.407 68.9439 111.389 69.1358L113.381 69.3212ZM113.385 69.2462L113.385 69.2457L111.385 69.2112L111.385 69.2117L113.385 69.2462ZM113.385 88.4065V69.2289H111.385V88.4065H113.385ZM118.24 93.2616C118.24 90.0278 115.619 87.4065 112.385 87.4065V89.4065C114.514 89.4065 116.24 91.1324 116.24 93.2616H118.24ZM112.385 94.2616H117.24V92.2616H112.385V94.2616ZM101.675 83.5514C101.675 89.4663 106.47 94.2616 112.385 94.2616V92.2616C107.574 92.2616 103.675 88.3617 103.675 83.5514H101.675ZM101.675 81.8323V83.5514H103.675V81.8323H101.675ZM95.2232 84.5511C97.8759 84.5511 100.596 83.9048 103.097 82.7386L102.252 80.926C99.9908 81.9804 97.5575 82.5511 95.2232 82.5511V84.5511ZM94.2232 76.2687V83.5511H96.2232V76.2687H94.2232ZM95.2221 77.2687H95.2232V75.2687H95.2221V77.2687ZM96.2221 88.4065V76.2687H94.2221V88.4065H96.2221ZM101.077 93.2616C101.077 90.0269 98.4568 87.4065 95.2221 87.4065V89.4065C97.3522 89.4065 99.0773 91.1315 99.0773 93.2616H101.077ZM95.2221 94.2616H100.077V92.2616H95.2221V94.2616ZM87.6499 91.1236C89.587 93.0607 92.2659 94.2616 95.2221 94.2616V92.2616C92.8183 92.2616 90.6419 91.2872 89.0641 89.7094L87.6499 91.1236ZM84.5118 83.5514C84.5119 86.5075 85.7125 89.1862 87.6499 91.1236L89.0641 89.7094C87.4861 88.1314 86.5118 85.9552 86.5118 83.5513L84.5118 83.5514ZM56.7768 84.5514H85.5118V82.5514H56.7768V84.5514ZM52.3446 88.742C54.2306 87.4303 55.9635 85.9155 57.5134 84.2277L56.0403 82.875C54.5895 84.4548 52.9676 85.8726 51.2026 87.1L52.3446 88.742ZM53.6379 86.921H51.7736V88.921H53.6379V86.921ZM59.9786 93.2616C59.9786 89.76 57.1398 86.921 53.6379 86.921V88.921C56.0352 88.921 57.9786 90.8645 57.9786 93.2616H59.9786ZM34.7031 94.2616H58.9786V92.2616H34.7031V94.2616ZM33.7101 93.1432L33.7101 93.1434L35.6961 93.3798L35.6961 93.3796L33.7101 93.1432ZM8 94.2614H34.7031V92.2614H8V94.2614ZM20.1377 80.1237C12.8821 80.1237 7 86.0058 7 93.2614H9C9 87.1103 13.9867 82.1237 20.1377 82.1237V80.1237ZM34.7031 80.1237H20.1377V82.1237H34.7031V80.1237ZM33.7031 72.6274L33.7031 81.1237L35.7031 81.1237L35.7031 72.6274L33.7031 72.6274ZM58.8563 54.6311C45.2474 52.5739 33.7031 60.4826 33.7031 72.6274H35.7031C35.7031 62.0744 45.7638 54.6747 58.5573 56.6087L58.8563 54.6311ZM85.6721 58.9879L58.8672 54.6328L58.5464 56.6069L85.3514 60.962L85.6721 58.9879ZM86.3731 59.4668L86.373 59.4667L84.6506 60.4832L84.6506 60.4833L86.3731 59.4668ZM84.5118 59.9749V59.975H86.5118V59.9749H84.5118ZM91.8837 41.3882L84.5836 59.6029L86.4401 60.3469L93.7401 42.1322L91.8837 41.3882ZM102.804 34.0002C100.56 34.0002 98.2433 34.8458 96.3042 36.1577C94.3651 37.4696 92.7182 39.306 91.8837 41.3882L93.7401 42.1322C94.3957 40.4965 95.742 38.9528 97.4249 37.8142C99.1079 36.6756 101.042 36.0002 102.804 36.0002V34.0002ZM105.102 34.0002H102.804V36.0002H105.102V34.0002ZM104.308 34.3919L104.308 34.3922L105.896 35.6083L105.896 35.6081L104.308 34.3919ZM112.385 34H105.102V36H112.385V34Z" fill="url(#paint3_linear_0_377)" mask="url(#path-11-inside-1_0_377)"/>
</g>
<path opacity="0.5" d="M117.24 38.3987L116.953 38.8083C117.037 38.8671 117.137 38.8987 117.24 38.8987V38.3987ZM112.385 35L112.672 34.5904C112.588 34.5316 112.487 34.5 112.385 34.5V35ZM119.667 38.3987H120.167C120.167 38.1225 119.944 37.8987 119.667 37.8987V38.3987ZM116.026 45.924L115.868 45.4497L115.868 45.4497L116.026 45.924ZM112.384 47.138L112.226 46.6636C111.992 46.7417 111.85 46.9791 111.892 47.2225C111.933 47.4658 112.146 47.6423 112.393 47.6379L112.384 47.138ZM112.385 47.138H112.885C112.885 47.0038 112.831 46.8753 112.735 46.7813C112.64 46.6873 112.51 46.6356 112.376 46.638L112.385 47.138ZM112.393 68.434H112.893C112.893 68.4288 112.893 68.4237 112.893 68.4185L112.393 68.434ZM112.393 68.4352H111.893C111.893 68.4403 111.893 68.4455 111.893 68.4506L112.393 68.4352ZM112.385 69.2285L111.887 69.1821C111.886 69.1947 111.885 69.2073 111.885 69.2199L112.385 69.2285ZM112.385 69.2289L111.885 69.2203V69.2289H112.385ZM112.385 88.4065H111.885C111.885 88.6826 112.109 88.9065 112.385 88.9065V88.4065ZM117.24 93.2616V93.7616C117.516 93.7616 117.74 93.5378 117.74 93.2616H117.24ZM102.675 81.8323H103.175C103.175 81.6614 103.087 81.5024 102.943 81.4106C102.799 81.3188 102.618 81.3069 102.463 81.3791L102.675 81.8323ZM95.2232 83.5511H94.7232C94.7232 83.8273 94.9471 84.0511 95.2232 84.0511V83.5511ZM95.2232 76.2687H95.7232C95.7232 75.9926 95.4993 75.7687 95.2232 75.7687V76.2687ZM95.2221 76.2687V75.7687C94.946 75.7687 94.7221 75.9926 94.7221 76.2687H95.2221ZM95.2221 88.4065H94.7221C94.7221 88.6826 94.946 88.9065 95.2221 88.9065V88.4065ZM100.077 93.2616V93.7616C100.353 93.7616 100.577 93.5377 100.577 93.2616H100.077ZM88.357 90.4165L88.7105 90.0629L88.7105 90.0629L88.357 90.4165ZM85.5118 83.5514L86.0118 83.5513C86.0118 83.2752 85.7879 83.0514 85.5118 83.0514V83.5514ZM56.7768 83.5514V83.0514C56.6368 83.0514 56.5032 83.11 56.4086 83.2132L56.7768 83.5514ZM51.7736 87.921L51.4881 87.5105C51.3087 87.6353 51.2311 87.8621 51.2965 88.0706C51.3619 88.2791 51.5551 88.421 51.7736 88.421V87.921ZM58.9786 93.2616V93.7616C59.2547 93.7616 59.4786 93.5378 59.4786 93.2616H58.9786ZM34.7031 93.2616L34.2066 93.2025C34.1897 93.3444 34.2343 93.4868 34.3292 93.5936C34.4241 93.7005 34.5602 93.7616 34.7031 93.7616V93.2616ZM34.7031 93.2614L35.1996 93.3205C35.2165 93.1786 35.1719 93.0362 35.077 92.9294C34.9821 92.8225 34.846 92.7614 34.7031 92.7614V93.2614ZM8 93.2614H7.5C7.5 93.5375 7.72386 93.7614 8 93.7614V93.2614ZM34.7031 81.1237V81.6237C34.8357 81.6237 34.9629 81.571 35.0567 81.4772C35.1505 81.3834 35.2031 81.2563 35.2031 81.1237L34.7031 81.1237ZM34.7031 72.6274L34.2031 72.6274L34.2031 72.6274L34.7031 72.6274ZM58.7068 55.6199L58.787 55.1263L58.7815 55.1255L58.7068 55.6199ZM85.5118 59.9749L85.9424 59.7208C85.8669 59.5929 85.7385 59.5052 85.592 59.4814L85.5118 59.9749ZM85.5118 59.975L85.0812 60.2292C85.1958 60.4233 85.4261 60.5168 85.6436 60.4574C85.861 60.398 86.0118 60.2004 86.0118 59.975H85.5118ZM85.5118 59.9749L85.0477 59.7889C85.024 59.848 85.0118 59.9112 85.0118 59.9749H85.5118ZM92.8119 41.7602L93.276 41.9462L93.276 41.9462L92.8119 41.7602ZM105.102 35.0002V35.5002C105.258 35.5002 105.404 35.4278 105.499 35.3042L105.102 35.0002ZM105.102 35V34.5C104.947 34.5 104.8 34.5724 104.705 34.696L105.102 35ZM117.527 37.989L112.672 34.5904L112.098 35.4096L116.953 38.8083L117.527 37.989ZM119.667 37.8987H117.24V38.8987H119.667V37.8987ZM120.167 41.5546V38.3987H119.167V41.5546H120.167ZM116.184 46.3983C117.282 46.0324 118.268 45.3163 118.982 44.4599C119.692 43.608 120.167 42.5732 120.167 41.5546H119.167C119.167 42.2716 118.824 43.0877 118.214 43.8197C117.608 44.5472 116.773 45.148 115.868 45.4497L116.184 46.3983ZM112.543 47.6123L116.184 46.3983L115.868 45.4497L112.226 46.6636L112.543 47.6123ZM112.376 46.638L112.375 46.638L112.393 47.6379L112.394 47.6379L112.376 46.638ZM112.885 68.0359V47.138H111.885V68.0359H112.885ZM112.893 68.4185C112.889 68.2847 112.885 68.1597 112.885 68.0359H111.885C111.885 68.1778 111.889 68.3182 111.893 68.4494L112.893 68.4185ZM112.893 68.4343V68.434H111.893V68.4343H112.893ZM112.893 68.4345V68.4343H111.893V68.4345H112.893ZM112.893 68.4348V68.4345H111.893V68.4348H112.893ZM112.893 68.4349V68.4348H111.893V68.4349H112.893ZM112.893 68.435V68.4349H111.893V68.435H112.893ZM112.893 68.4351V68.435H111.893V68.4351H112.893ZM112.893 68.4352V68.4351H111.893V68.4352H112.893ZM112.883 69.2748C112.911 68.9751 112.901 68.6796 112.893 68.4198L111.893 68.4506C111.902 68.7209 111.908 68.9543 111.887 69.1821L112.883 69.2748ZM112.885 69.2375L112.885 69.2371L111.885 69.2199L111.885 69.2203L112.885 69.2375ZM112.885 88.4065V69.2289H111.885V88.4065H112.885ZM117.74 93.2616C117.74 90.3039 115.343 87.9065 112.385 87.9065V88.9065C114.79 88.9065 116.74 90.8562 116.74 93.2616H117.74ZM112.385 93.7616H117.24V92.7616H112.385V93.7616ZM102.175 83.5514C102.175 89.1901 106.746 93.7616 112.385 93.7616V92.7616C107.298 92.7616 103.175 88.6379 103.175 83.5514H102.175ZM102.175 81.8323V83.5514H103.175V81.8323H102.175ZM95.2232 84.0511C97.7963 84.0511 100.445 83.4237 102.886 82.2854L102.463 81.3791C100.142 82.4615 97.6371 83.0511 95.2232 83.0511V84.0511ZM94.7232 76.2687V83.5511H95.7232V76.2687H94.7232ZM95.2221 76.7687H95.2232V75.7687H95.2221V76.7687ZM95.7221 88.4065V76.2687H94.7221V88.4065H95.7221ZM100.577 93.2616C100.577 90.303 98.1807 87.9065 95.2221 87.9065V88.9065C97.6284 88.9065 99.5773 90.8553 99.5773 93.2616H100.577ZM95.2221 93.7616H100.077V92.7616H95.2221V93.7616ZM88.0034 90.77C89.8507 92.6173 92.404 93.7616 95.2221 93.7616V92.7616C92.6802 92.7616 90.3782 91.7306 88.7105 90.0629L88.0034 90.77ZM85.0118 83.5514C85.0119 86.3694 86.1559 88.9225 88.0034 90.77L88.7105 90.0629C87.0427 88.3951 86.0118 86.0933 86.0118 83.5513L85.0118 83.5514ZM56.7768 84.0514H85.5118V83.0514H56.7768V84.0514ZM52.0591 88.3315C53.9149 87.0409 55.62 85.5503 57.1451 83.8895L56.4086 83.2132C54.933 84.82 53.2833 86.262 51.4881 87.5105L52.0591 88.3315ZM53.6379 87.421H51.7736V88.421H53.6379V87.421ZM59.4786 93.2616C59.4786 90.0361 56.8637 87.421 53.6379 87.421V88.421C56.3114 88.421 58.4786 90.5884 58.4786 93.2616H59.4786ZM34.7031 93.7616H58.9786V92.7616H34.7031V93.7616ZM34.2066 93.2023L34.2066 93.2025L35.1996 93.3207L35.1996 93.3205L34.2066 93.2023ZM8 93.7614H34.7031V92.7614H8V93.7614ZM20.1377 80.6237C13.1583 80.6237 7.5 86.2819 7.5 93.2614H8.5C8.5 86.8342 13.7106 81.6237 20.1377 81.6237V80.6237ZM34.7031 80.6237H20.1377V81.6237H34.7031V80.6237ZM34.2031 72.6274L34.2031 81.1237L35.2031 81.1237L35.2031 72.6274L34.2031 72.6274ZM58.7815 55.1255C45.3765 53.0991 34.2031 60.8806 34.2031 72.6274H35.2031C35.2031 61.6764 45.6347 54.1495 58.6321 56.1143L58.7815 55.1255ZM85.592 59.4814L58.787 55.1264L58.6266 56.1134L85.4316 60.4684L85.592 59.4814ZM85.9425 59.7209L85.9424 59.7208L85.0812 60.229L85.0812 60.2292L85.9425 59.7209ZM85.0118 59.9749V59.975H86.0118V59.9749H85.0118ZM92.3478 41.5742L85.0477 59.7889L85.976 60.1609L93.276 41.9462L92.3478 41.5742ZM102.804 34.5002C100.681 34.5002 98.4594 35.3033 96.5844 36.5719C94.7093 37.8404 93.1375 39.6036 92.3478 41.5742L93.276 41.9462C93.9763 40.1989 95.3977 38.582 97.1447 37.4001C98.8917 36.2182 100.921 35.5002 102.804 35.5002V34.5002ZM105.102 34.5002H102.804V35.5002H105.102V34.5002ZM104.705 34.696L104.705 34.6962L105.499 35.3042L105.499 35.304L104.705 34.696ZM112.385 34.5H105.102V35.5H112.385V34.5Z" fill="#0E141F"/>
<defs>
<radialGradient id="paint0_radial_0_377" cx="0" cy="0" r="1" gradientUnits="userSpaceOnUse" gradientTransform="translate(108.978 94) scale(16.0303 1.06624)">
<stop stop-color="#181818"/>
<stop offset="1" stop-color="#181818" stop-opacity="0.01"/>
</radialGradient>
<radialGradient id="paint1_radial_0_377" cx="0" cy="0" r="1" gradientUnits="userSpaceOnUse" gradientTransform="translate(18.9775 100) scale(16.0303 1.08602)">
<stop stop-color="#181818"/>
<stop offset="1" stop-color="#181818" stop-opacity="0.01"/>
</radialGradient>
<linearGradient id="paint2_linear_0_377" x1="112.583" y1="97.0238" x2="112.583" y2="90.9995" gradientUnits="userSpaceOnUse">
<stop stop-color="#181818" stop-opacity="0.01"/>
<stop offset="0.5" stop-color="#181818"/>
<stop offset="1" stop-color="#181818" stop-opacity="0.01"/>
</linearGradient>
<linearGradient id="paint3_linear_0_377" x1="-5.23688" y1="34.6799" x2="-5.23688" y2="93.5817" gradientUnits="userSpaceOnUse">
<stop stop-color="white"/>
<stop offset="0.0631645" stop-color="white" stop-opacity="0.235294"/>
<stop offset="0.950563" stop-color="white" stop-opacity="0.156863"/>
<stop offset="1" stop-color="white" stop-opacity="0.392157"/>
</linearGradient>
</defs>
</svg>
